<svg xmlns="http://www.w3.org/2000/svg" width="36" height="36" viewBox="0 0 36 36"><g transform="translate(-0.293 0.054)"><g transform="translate(1.195 -0.054)"><g transform="translate(0 0)"><path d="M12.6,9.9V7.2h-9A3.52,3.52,0,0,1,1.062,6.138,3.52,3.52,0,0,1,0,3.6,3.626,3.626,0,0,1,3.258.018,2.067,2.067,0,0,1,3.6,0h27a2.067,2.067,0,0,1,.342.018,3.423,3.423,0,0,1,2.2,1.044,3.556,3.556,0,0,1,1.044,2.862A3.725,3.725,0,0,1,30.4,7.2H21.6V9.9a4.5,4.5,0,1,1-9,0Z" transform="translate(0 21.6)" fill="#292d32"/><path d="M29.44,5.94l-.864,15.678a2.067,2.067,0,0,0-.342-.018h-27a2.067,2.067,0,0,0-.342.018L.028,5.94A5.393,5.393,0,0,1,5.392,0H24.076A5.393,5.393,0,0,1,29.44,5.94Z" transform="translate(2.366 0)" fill="#cbcbcb"/><path d="M2.7,0V9a1.36,1.36,0,0,1-1.35,1.35A1.36,1.36,0,0,1,0,9V0Z" transform="translate(8.532 0)" fill="#292d32"/><path d="M2.7,0V3.6A1.36,1.36,0,0,1,1.35,4.95,1.36,1.36,0,0,1,0,3.6V0Z" transform="translate(15.75 0)" fill="#292d32"/></g></g><rect width="36" height="36" transform="translate(0.293 -0.054)" fill="none"/></g></svg>