<svg xmlns="http://www.w3.org/2000/svg" width="36" height="36" viewBox="0 0 36 36"><g transform="translate(0.441 0.284)"><g transform="translate(3.339 -0.284)"><g transform="translate(0 0)"><path d="M24.93,5.26l-.252-.144-2.5-1.44L17.01.688a6,6,0,0,0-5.58,0L6.264,3.676l-2.5,1.458-.324.18C.216,7.474,0,7.87,0,11.344v8.3c0,3.474.216,3.87,3.51,6.084L11.43,30.3a5.528,5.528,0,0,0,2.79.684,5.574,5.574,0,0,0,2.79-.684L25,25.672c3.222-2.16,3.438-2.556,3.438-6.03v-8.3C28.44,7.87,28.224,7.474,24.93,5.26Z" transform="translate(0 5.018)" fill="#cbcbcb"/><path d="M0,10.152,2.5,8.694,7.434,5.85l.234-.144a6,6,0,0,1,5.58,0l.234.144,4.932,2.844,2.5,1.44V6.282C20.916,2.232,18.684,0,14.634,0H6.264C2.214,0,0,2.232,0,6.282Z" transform="translate(3.762 0)" fill="#292d32"/><path d="M10.6,5.17,9.487,6.538A1.352,1.352,0,0,0,9.2,7.4l.108,1.764A1.157,1.157,0,0,1,7.6,10.408L5.959,9.76a1.656,1.656,0,0,0-.936,0l-1.638.648a1.157,1.157,0,0,1-1.71-1.242L1.783,7.4a1.352,1.352,0,0,0-.288-.864L.379,5.17a1.159,1.159,0,0,1,.648-2.016l1.71-.432a1.429,1.429,0,0,0,.738-.558L4.429.688a1.163,1.163,0,0,1,2.124,0l.954,1.476a1.429,1.429,0,0,0,.738.558l1.71.432A1.159,1.159,0,0,1,10.6,5.17Z" transform="translate(8.729 15.241)" fill="#292d32"/></g></g><rect width="36" height="36" transform="translate(-0.441 -0.284)" fill="none"/></g></svg>