<svg xmlns="http://www.w3.org/2000/svg" width="36" height="36" viewBox="0 0 36 36"><g transform="translate(0 -0.442)"><g transform="translate(3.42 0.442)"><g transform="translate(0 0)"><path d="M15.66.378a1.784,1.784,0,0,0-2.2,0C10.044,2.988-.054,11.5,0,21.42a14.58,14.58,0,0,0,29.16.018C29.178,11.664,19.062,3.006,15.66.378Z" transform="translate(0 0)" fill="#cbcbcb"/><path d="M15.912,21.96a13.806,13.806,0,0,1-.486,3.222L2.7,31.374v4.572Q2.025,36,1.35,36T0,35.946V.558C.09.486.162.432.234.378a1.81,1.81,0,0,1,2.214,0c.072.054.162.126.252.2v9.792L9.5,7.056c.594.684,1.152,1.386,1.71,2.124a.685.685,0,0,1-.234.162L2.7,13.374v5.994L14.022,13.86c.018,0,.018-.018.036-.018a17.722,17.722,0,0,1,1.008,2.5L2.7,22.374v5.994l11.916-5.8Z" transform="translate(13.212 0)" fill="#292d32"/></g></g><rect width="36" height="36" transform="translate(0 0.442)" fill="none"/></g></svg>