<svg xmlns="http://www.w3.org/2000/svg" width="36" height="36" viewBox="0 0 36 36"><g transform="translate(-0.293 -0.442)"><g transform="translate(3.719 0.442)"><g transform="translate(0 0)"><path d="M21.5,16.218H7.672c-7.542,0-9.036-4.554-6.588-10.1L3.676.234A34.682,34.682,0,0,1,14.584,1.818c5.4,1.8,10.494-1.6,10.494-1.6L25.42,0,28.1,6.138C30.514,11.682,28.93,16.218,21.5,16.218Z" transform="translate(0 19.782)" fill="#292d32"/><path d="M21.744,19.782,21.4,20s-5.094,3.4-10.494,1.6A34.682,34.682,0,0,0,0,20.016L5.04,8.532H4.5A4.266,4.266,0,0,1,4.5,0H17.3a4.257,4.257,0,0,1,3.024,1.26,4.2,4.2,0,0,1,1.134,4.05A4.405,4.405,0,0,1,17.1,8.532h-.288Z" transform="translate(3.676)" fill="#cbcbcb"/></g></g><rect width="36" height="36" transform="translate(0.293 0.442)" fill="none"/></g></svg>