<svg xmlns="http://www.w3.org/2000/svg" width="36" height="36" viewBox="0 0 36 36"><g transform="translate(0 -0.177)"><g transform="translate(0.231 0.407)"><g transform="translate(0 0)"><path d="M0,19.619V8.924A8.93,8.93,0,0,1,8.942,0H26.827a8.93,8.93,0,0,1,8.942,8.924V21.408a8.927,8.927,0,0,1-8.942,8.907H24.144a1.813,1.813,0,0,0-1.431.715l-2.683,3.559a2.541,2.541,0,0,1-4.292,0L13.056,31.03a1.988,1.988,0,0,0-1.431-.715H8.942A8.927,8.927,0,0,1,0,21.408Z" transform="translate(0 0)" fill="#cbcbcb"/></g><g transform="translate(6.279 11.804)"><path d="M7.15,3.331V-1.122C7.15-3.34,6.524-4.1,4.163-4.1H3.17C.81-4.1.3-3.34.3-1.122V3.331H2.849v-1.1H4.619v1.1ZM4.619-.094H2.849V-1.122c0-.465.072-.6.474-.6h.814c.411,0,.483.134.483.6ZM15.511,1.2V.97a1.718,1.718,0,0,0-.787-1.475,1.679,1.679,0,0,0,.617-1.234v-.241c0-1.6-.858-1.994-2.423-1.994H8.3v7.3H13.15C14.974,3.322,15.511,2.374,15.511,1.2ZM12.542-1.444c0,.125-.17.259-.349.259H10.941v-.59h1.3c.206,0,.3.107.3.232ZM12.685.809c0,.161-.1.25-.358.25H10.941V.38H12.4c.2,0,.286.08.286.224Z" transform="translate(-0.3 4.1)" fill="#292d32"/><path d="M16.7.6V.228h-2.54v.2c0,.34-.2.635-.814.635h-.3c-.572,0-.957-.206-.957-.85V-.8c0-.581.215-.885.921-.885H13.3c.563,0,.814.188.814.563v.1h2.566v-.358c0-1.753-.993-2.718-3.38-2.718H12.89c-2.629,0-3.47.93-3.47,3.3V.21c0,2.45.93,3.246,3.505,3.246h.42C15.715,3.456,16.7,2.6,16.7.6Z" transform="translate(6.495 4.1)" fill="#292d32"/></g></g><rect width="36" height="36" transform="translate(0 0.177)" fill="none"/></g></svg>