<svg xmlns="http://www.w3.org/2000/svg" width="36" height="36" viewBox="0 0 36 36"><g transform="translate(0 0.32)"><g transform="translate(0 1.861)"><g transform="translate(0 0)"><path d="M11.452,0V26.174a3.6,3.6,0,0,0-1.7.438L5.461,29.059C2.466,30.776,0,29.352,0,25.881V8.11A4.037,4.037,0,0,1,1.845,4.95L9.753.42A3.824,3.824,0,0,1,11.452,0Z" transform="translate(0 0.002)" fill="#cbcbcb"/><path d="M13.1,5.463V31.637a3.859,3.859,0,0,1-1.753-.329L1.753,26.5A3.859,3.859,0,0,0,0,26.175V0A3.859,3.859,0,0,1,1.753.331l9.589,4.8A3.859,3.859,0,0,0,13.1,5.463Z" transform="translate(11.452 0)" fill="#292d32"/><path d="M11.452,3.906V21.678a4.037,4.037,0,0,1-1.845,3.16L1.7,29.367a3.824,3.824,0,0,1-1.7.42V3.614a3.6,3.6,0,0,0,1.7-.438L5.991.728C8.986-.989,11.452.436,11.452,3.906Z" transform="translate(24.548 1.849)" fill="#cbcbcb"/></g></g><rect width="36" height="36" transform="translate(0 -0.319)" fill="none"/></g></svg>