<svg xmlns="http://www.w3.org/2000/svg" width="36" height="36" viewBox="0 0 36 36"><g transform="translate(-0.293 -0.185)"><g transform="translate(0.293 2.165)"><g transform="translate(0 0)"><path d="M36,10.062a19.221,19.221,0,0,1-.936,5.958H.936A19.221,19.221,0,0,1,0,10.062,9.993,9.993,0,0,1,18,4.014a9.993,9.993,0,0,1,18,6.048Z" transform="translate(0 0)" fill="#292d32"/><path d="M34.128,0C31.284,9,22.518,14.382,18.18,15.858a3.925,3.925,0,0,1-2.232,0C11.61,14.382,2.844,9,0,0Z" transform="translate(0.936 16.02)" fill="#cbcbcb"/></g></g><rect width="36" height="36" transform="translate(0.293 0.185)" fill="none"/></g></svg>