<svg xmlns="http://www.w3.org/2000/svg" width="36" height="36.007" viewBox="0 0 36 36.007"><g transform="translate(-0.293 0.326)"><g transform="translate(0.293 -0.326)"><rect width="26.45" height="17.192" transform="translate(4.519 17.746)" fill="#cbcbcb"/><g transform="translate(0 0)"><path d="M10.331.22A1.273,1.273,0,0,0,9.159.086a10.01,10.01,0,0,1-7.434,0A1.273,1.273,0,0,0,.553.22,1.236,1.236,0,0,0,0,1.258V11.3A1.265,1.265,0,0,0,1.256,12.56,1.265,1.265,0,0,0,2.512,11.3V7.989a12.432,12.432,0,0,0,2.93.368,12.512,12.512,0,0,0,4.655-.9,1.262,1.262,0,0,0,.787-1.172V1.258A1.236,1.236,0,0,0,10.331.22Z" transform="translate(16.744 0)" fill="#cbcbcb"/><path d="M34.744,23.442H32.651V6.279C32.651,2.227,30.424,0,26.372,0H9.628C5.576,0,3.349,2.227,3.349,6.279V23.442H1.256a1.256,1.256,0,0,0,0,2.512H34.744a1.256,1.256,0,0,0,0-2.512ZM30.14,9.209V23.442h-4.2V9.209ZM16.727,23.442H12.541V9.209h4.186ZM19.239,9.209h4.186V23.442H19.239Zm-13.379,0H10.03V23.442H5.86Z" transform="translate(0 10.048)" fill="#292d32"/></g></g><rect width="36" height="36" transform="translate(0.293 -0.319)" fill="none"/></g></svg>