<svg xmlns="http://www.w3.org/2000/svg" width="36.001" height="36" viewBox="0 0 36.001 36"><g transform="translate(-0.293 -0.45)"><g transform="translate(0.293 1.524)"><g transform="translate(0 0)"><path d="M30.224,12.471V32.6H0L.084,12.454A3.323,3.323,0,0,1,1.373,9.825L13.094.716a3.321,3.321,0,0,1,4.119,0l2.244,1.741,7.418,5.76,2.06,1.608A3.331,3.331,0,0,1,30.224,12.471Z" transform="translate(2.847 0)" fill="#cbcbcb"/><g transform="translate(0 31.342)"><path d="M34.746,2.512H1.256A1.265,1.265,0,0,1,0,1.256,1.265,1.265,0,0,1,1.256,0h33.49A1.265,1.265,0,0,1,36,1.256,1.265,1.265,0,0,1,34.746,2.512Z" fill="#101f23"/></g><path d="M5.861,0H2.512A2.508,2.508,0,0,0,0,2.512V8.372H8.372V2.512A2.508,2.508,0,0,0,5.861,0Z" transform="translate(13.815 24.226)" fill="#101f23"/><path d="M5.023,5.861H1.674A1.679,1.679,0,0,1,0,4.186V1.674A1.679,1.679,0,0,1,1.674,0H5.023A1.679,1.679,0,0,1,6.7,1.674V4.186A1.679,1.679,0,0,1,5.023,5.861Z" transform="translate(8.791 12.923)" fill="#101f23"/><path d="M5.023,5.861H1.674A1.679,1.679,0,0,1,0,4.186V1.674A1.679,1.679,0,0,1,1.674,0H5.023A1.679,1.679,0,0,1,6.7,1.674V4.186A1.679,1.679,0,0,1,5.023,5.861Z" transform="translate(20.512 12.923)" fill="#101f23"/><path d="M7.418,5.76,0,0H5.71A1.665,1.665,0,0,1,7.384,1.658Z" transform="translate(22.304 2.457)" fill="#101f23"/></g></g><rect width="36" height="36" transform="translate(0.293 0.45)" fill="none"/></g></svg>