<svg xmlns="http://www.w3.org/2000/svg" width="36" height="36" viewBox="0 0 36 36"><g transform="translate(-0.293 -0.177)"><g transform="translate(2.993 0.176)"><g transform="translate(0 0)"><path d="M30.6,9V23.4H5.13A5.139,5.139,0,0,0,0,28.53V9C0,1.8,1.8,0,9,0H21.6C28.8,0,30.6,1.8,30.6,9Z" transform="translate(0 0)" fill="#cbcbcb"/><path d="M30.6,0V6.3a6.307,6.307,0,0,1-6.3,6.3H6.3A6.307,6.307,0,0,1,0,6.3V5.13A5.139,5.139,0,0,1,5.13,0Z" transform="translate(0 23.4)" fill="#292d32"/><path d="M15.75,2.084H1.35A1.236,1.236,0,0,1,0,1.042,1.236,1.236,0,0,1,1.35,0h14.4A1.236,1.236,0,0,1,17.1,1.042,1.236,1.236,0,0,1,15.75,2.084Z" transform="translate(6.75 14.265)" fill="#292d32"/><path d="M15.75,2.084H1.35A1.236,1.236,0,0,1,0,1.042,1.236,1.236,0,0,1,1.35,0h14.4A1.236,1.236,0,0,1,17.1,1.042,1.236,1.236,0,0,1,15.75,2.084Z" transform="translate(6.749 18.496)" fill="#292d32"/></g><path d="M6.449,6.06v-4A1.816,1.816,0,0,0,4.518.113c-1.153,0-1.648.643-1.881,1.761L2.2,4c-.042.219-.106.247-.17.247s-.092-.028-.092-.205V.262H0V4.327A1.738,1.738,0,0,0,1.916,6.272c1.16,0,1.591-.587,1.846-1.754l.5-2.312c.014-.064.049-.141.106-.141s.113.028.113.191v3.8Zm7.078-2.2v-.12a1.993,1.993,0,0,0-2.206-2.213h-.247V.007h-4V1.966h1.9V3.451h1.853c.368,0,.509.156.509.41s-.134.382-.509.382H7.545V6.293h3.606C12.855,6.293,13.527,5.522,13.527,3.861Zm7.1-1.747V.262h-.672V0H17.967V.262h-1.6V2.114h1.6v.714h-.021A1.523,1.523,0,0,0,16.313,4.32c-.17-.007-.212-.064-.212-.255V0H14.163V4.624c0,1.11.523,1.64,1.725,1.64h.629V5.522a1.373,1.373,0,0,0,1.308.778h.566c1.1,0,1.619-.417,1.64-1.457h.587V2.828h-.665V2.114ZM18.377,4.426a.233.233,0,0,1-.226.247h-.057c-.156,0-.24-.085-.24-.255a.212.212,0,0,1,.226-.212h.3Z" transform="translate(4.986 4.849)" fill="#292d32"/></g><rect width="36" height="36" transform="translate(0.293 0.177)" fill="none"/></g></svg>