<svg xmlns="http://www.w3.org/2000/svg" width="36" height="36" viewBox="0 0 36 36"><g transform="translate(-0.293 0.284)"><g transform="translate(3.765 -0.284)"><g transform="translate(0 0)"><path d="M27.435,7.845A14.249,14.249,0,0,0,17.75.356,14.543,14.543,0,0,0,5.419,3.2,14.353,14.353,0,0,0,0,14.487,15.581,15.581,0,0,0,7,26.855v1.494a2.415,2.415,0,0,0,.576,1.908,3.105,3.105,0,0,0,2.3.72h9.235a3.007,3.007,0,0,0,2.214-.774,2.693,2.693,0,0,0,.648-2.088v-1.26C27.561,23.092,31.072,15.153,27.435,7.845Z" transform="translate(0 0)" fill="#cbcbcb"/><path d="M12.977,3.33a1.13,1.13,0,0,1-.342-.054,20.165,20.165,0,0,0-11.035,0A1.257,1.257,0,0,1,.051,2.412,1.243,1.243,0,0,1,.915.864a22.752,22.752,0,0,1,12.422,0A1.251,1.251,0,0,1,14.2,2.412,1.3,1.3,0,0,1,12.977,3.33Z" transform="translate(7.348 32.67)" fill="#292d32"/></g></g><rect width="36" height="36" transform="translate(0.293 -0.284)" fill="none"/></g></svg>