<svg xmlns="http://www.w3.org/2000/svg" width="36" height="36" viewBox="0 0 36 36"><g transform="translate(0.441 0.32)"><g transform="translate(-0.441 -0.32)"><g transform="translate(0 0)"><path d="M19.8,0H9A9,9,0,0,0,0,9V19.8a9,9,0,0,0,9,9H19.8a9,9,0,0,0,9-9V9A9,9,0,0,0,19.8,0Zm4.068,18.468a5.393,5.393,0,0,1-5.4,5.4H10.332a5.393,5.393,0,0,1-5.4-5.4V10.332a5.393,5.393,0,0,1,5.4-5.4H18.45a5.393,5.393,0,0,1,5.4,5.4v8.136Z" transform="translate(3.6 3.6)" fill="#cbcbcb"/><path d="M2.7,1.35V3.6H2.592A8.853,8.853,0,0,0,0,3.978V1.35a1.35,1.35,0,0,1,2.7,0Z" transform="translate(10.008 0)" fill="#292d32"/><path d="M2.7,1.35V3.6H0V1.35A1.36,1.36,0,0,1,1.35,0,1.36,1.36,0,0,1,2.7,1.35Z" transform="translate(16.65 0)" fill="#292d32"/><path d="M2.7,1.35V3.978A8.974,8.974,0,0,0,.09,3.6H0V1.35A1.36,1.36,0,0,1,1.35,0,1.36,1.36,0,0,1,2.7,1.35Z" transform="translate(23.31 0)" fill="#292d32"/><path d="M3.978,1.35A1.337,1.337,0,0,1,2.628,2.7H.378V2.61A8.974,8.974,0,0,0,0,0H2.628A1.348,1.348,0,0,1,3.978,1.35Z" transform="translate(32.022 9.99)" fill="#292d32"/><path d="M3.6,1.35A1.348,1.348,0,0,1,2.25,2.7H0V0H2.25A1.337,1.337,0,0,1,3.6,1.35Z" transform="translate(32.4 16.65)" fill="#292d32"/><path d="M3.978,1.35A1.348,1.348,0,0,1,2.628,2.7H0A8.974,8.974,0,0,0,.378.09V0h2.25A1.337,1.337,0,0,1,3.978,1.35Z" transform="translate(32.022 23.31)" fill="#292d32"/><path d="M2.7,0V2.628a1.36,1.36,0,0,1-1.35,1.35A1.36,1.36,0,0,1,0,2.628V.378H.09A8.974,8.974,0,0,0,2.7,0Z" transform="translate(23.31 32.022)" fill="#292d32"/><path d="M2.7,0V2.25a1.35,1.35,0,1,1-2.7,0V0Z" transform="translate(16.668 32.4)" fill="#292d32"/><path d="M2.7.378v2.25a1.35,1.35,0,0,1-2.7,0V0A8.853,8.853,0,0,0,2.592.378Z" transform="translate(10.008 32.022)" fill="#292d32"/><path d="M3.978,0A8.974,8.974,0,0,0,3.6,2.61V2.7H1.35a1.35,1.35,0,0,1,0-2.7Z" transform="translate(0 9.99)" fill="#292d32"/><path d="M3.6,0V2.7H1.35a1.35,1.35,0,0,1,0-2.7Z" transform="translate(0 16.65)" fill="#292d32"/><path d="M3.978,2.7H1.35a1.35,1.35,0,0,1,0-2.7H3.6V.09A8.974,8.974,0,0,0,3.978,2.7Z" transform="translate(0 23.31)" fill="#292d32"/><path d="M18.936,5.4v8.118a5.393,5.393,0,0,1-5.4,5.4H5.4a5.393,5.393,0,0,1-5.4-5.4V5.4A5.393,5.393,0,0,1,5.4,0h8.118A5.42,5.42,0,0,1,18.936,5.4Z" transform="translate(8.532 8.532)" fill="#292d32"/></g></g><rect width="36" height="36" transform="translate(-0.441 -0.319)" fill="none"/></g></svg>