<svg xmlns="http://www.w3.org/2000/svg" width="36" height="36" viewBox="0 0 36 36"><g transform="translate(-0.293 0.018)"><g transform="translate(1.364 -0.018)"><g transform="translate(0 0)"><path d="M22.962,0V8.872a6.167,6.167,0,0,1-3.923,5.453L13.3,16.232a6.569,6.569,0,0,1-3.635,0L3.923,14.324A6.139,6.139,0,0,1,0,8.872L.018,0,7.972,5.183a7.037,7.037,0,0,0,7.09,0Z" transform="translate(5.466 19.512)" fill="#cbcbcb"/><path d="M31.308,8.03,20.528.958a7.037,7.037,0,0,0-7.09,0L2.6,8.03a5.734,5.734,0,0,0,0,9.61l2.879,1.872,7.954,5.183a7.037,7.037,0,0,0,7.09,0l7.9-5.183,2.465-1.62V23.4a1.35,1.35,0,1,0,2.7,0V14.545A5.714,5.714,0,0,0,31.308,8.03Z" transform="translate(0 0)" fill="#101f23"/></g></g><rect width="36" height="36" transform="translate(0.293 -0.018)" fill="none"/></g></svg>