<svg xmlns="http://www.w3.org/2000/svg" width="36" height="36" viewBox="0 0 36 36"><g transform="translate(0.441 -0.177)"><g transform="translate(-0.221 0.379)"><g transform="translate(0 0)"><path d="M25.4,0h-15C3.884,0,0,3.884,0,10.4V25.38C0,31.913,3.884,35.8,10.4,35.8H25.38c6.515,0,10.4-3.884,10.4-10.4v-15C35.8,3.884,31.913,0,25.4,0Z" transform="translate(0 0)" fill="#cbcbcb"/><path d="M9.4,2.685H1.342A1.352,1.352,0,0,1,0,1.342,1.352,1.352,0,0,1,1.342,0H9.4a1.352,1.352,0,0,1,1.342,1.342A1.352,1.352,0,0,1,9.4,2.685Z" transform="translate(5.817 9.504)" fill="#292d32"/><path d="M9.4,2.685H1.342A1.352,1.352,0,0,1,0,1.342,1.352,1.352,0,0,1,1.342,0H9.4a1.352,1.352,0,0,1,1.342,1.342A1.352,1.352,0,0,1,9.4,2.685Z" transform="translate(19.241 20.243)" fill="#292d32"/><path d="M9.4,2.685H1.342A1.352,1.352,0,0,1,0,1.342,1.352,1.352,0,0,1,1.342,0H9.4a1.352,1.352,0,0,1,1.342,1.342A1.352,1.352,0,0,1,9.4,2.685Z" transform="translate(19.241 26.955)" fill="#292d32"/><path d="M9.4,4.027H6.748V1.342a1.342,1.342,0,0,0-2.685,0V4.027H1.342a1.342,1.342,0,0,0,0,2.685H4.063V9.4a1.342,1.342,0,0,0,2.685,0V6.712H9.4a1.342,1.342,0,0,0,0-2.685Z" transform="translate(19.241 5.477)" fill="#292d32"/><path d="M7.262,5.365l3.079-3.079a1.342,1.342,0,0,0-1.9-1.9L5.365,3.468,2.287.389a1.342,1.342,0,0,0-1.9,1.9L3.468,5.365.389,8.444a1.35,1.35,0,0,0,0,1.9,1.34,1.34,0,0,0,1.9,0L5.365,7.262l3.079,3.079a1.34,1.34,0,0,0,1.9,0,1.35,1.35,0,0,0,0-1.9Z" transform="translate(5.822 19.586)" fill="#292d32"/></g></g><rect width="36" height="36" transform="translate(-0.441 0.177)" fill="none"/></g></svg>