<svg xmlns="http://www.w3.org/2000/svg" width="36" height="36" viewBox="0 0 36 36"><g transform="translate(0.441 -0.185)"><g transform="translate(0.036 0.661)"><g transform="translate(0 0)"><path d="M25.1,26.34l.693,5.613a1.768,1.768,0,0,1-2.664,1.741l-7.442-4.423a17.729,17.729,0,0,1-2.4-.16,8.634,8.634,0,0,0,2.1-5.613c0-5.044-4.369-9.129-9.769-9.129A10.094,10.094,0,0,0,.071,15.985,11.258,11.258,0,0,1,0,14.635C0,6.554,7.016,0,15.683,0S31.367,6.554,31.367,14.635A14.306,14.306,0,0,1,25.1,26.34Z" transform="translate(4.156 0)" fill="#cbcbcb"/><path d="M19.538,9.129a8.634,8.634,0,0,1-2.1,5.613,9.918,9.918,0,0,1-7.673,3.5L5.133,20.994a1.111,1.111,0,0,1-1.67-1.083l.444-3.5A8.86,8.86,0,0,1,0,9.129,8.922,8.922,0,0,1,4.227,1.616,10.094,10.094,0,0,1,9.769,0C15.168,0,19.538,4.085,19.538,9.129Z" transform="translate(0 14.369)" fill="#292d32"/></g></g><rect width="36" height="36" transform="translate(-0.441 0.185)" fill="none"/></g></svg>