<svg xmlns="http://www.w3.org/2000/svg" width="36" height="36" viewBox="0 0 36 36"><g transform="translate(0 0.054)"><g transform="translate(1.997 -0.054)"><g transform="translate(0 0)"><path d="M12.925,0V14.527A6.515,6.515,0,1,1,10.4,9.451V.72Z" transform="translate(0 15.011)" fill="#101f23"/><path d="M12.925,0V16.489a6.462,6.462,0,1,1-6.462-6.444,6.339,6.339,0,0,1,3.96,1.386V.72Z" transform="translate(19.081 9.574)" fill="#101f23"/><path d="M21.6,5.722V9.574L0,15.731V8.548A5.393,5.393,0,0,1,4.14,3.166L14.545.322c2.106-.576,3.888-.378,5.148.594C20.972,1.87,21.6,3.49,21.6,5.722Z" transform="translate(10.405)" fill="#afabac"/></g></g><rect width="36" height="36" transform="translate(0 -0.054)" fill="none"/></g></svg>