<svg xmlns="http://www.w3.org/2000/svg" width="36" height="36" viewBox="0 0 36 36"><g transform="translate(0 -0.45)"><g transform="translate(0 0.705)"><g transform="translate(0 0)"><path d="M35.691,7.882V19.5H0V7.882A7.9,7.9,0,0,1,7.882,0H27.81A7.9,7.9,0,0,1,35.691,7.882Z" transform="translate(0 0)" fill="#101f23"/><path d="M0,0V.357A7.883,7.883,0,0,0,7.882,8.239h6.863a1.793,1.793,0,0,1,1.787,1.787V11.76a1.793,1.793,0,0,1-1.787,1.787H10.42a1.34,1.34,0,1,0,0,2.681H25.343a1.34,1.34,0,1,0,0-2.681H21.018a1.793,1.793,0,0,1-1.787-1.787V10.026a1.793,1.793,0,0,1,1.787-1.787h6.809A7.883,7.883,0,0,0,35.709.357V0Z" transform="translate(0 19.517)" fill="#afabac"/></g></g><rect width="36" height="36" transform="translate(0 0.45)" fill="none"/></g></svg>