<svg xmlns="http://www.w3.org/2000/svg" width="36" height="36" viewBox="0 0 36 36"><g transform="translate(0 0.284)"><g transform="translate(2.037 -0.284)"><g transform="translate(0 0)"><path d="M17.561,8.78A8.78,8.78,0,1,1,8.78,0,8.78,8.78,0,0,1,17.561,8.78Z" transform="translate(7.182)" fill="#cbcbcb"/><path d="M15.963,0C7.165,0,0,5.9,0,13.171a.87.87,0,0,0,.878.878h30.17a.87.87,0,0,0,.878-.878C31.926,5.9,24.761,0,15.963,0Z" transform="translate(0 21.951)" fill="#101f23"/></g></g><rect width="36" height="36" transform="translate(0 -0.284)" fill="none"/></g></svg>