<svg xmlns="http://www.w3.org/2000/svg" width="36" height="36" viewBox="0 0 36 36"><g transform="translate(0.441 0.054)"><g transform="translate(-0.441 2.34)"><g transform="translate(0 0)"><path d="M15.087,11.671,27.572,2.341A1.3,1.3,0,0,0,26.012.261l-13.092,9.8L3.3,2.862A1.3,1.3,0,0,0,1.735,4.943l9.017,6.746L.521,19.353a1.3,1.3,0,0,0-.26,1.821,1.281,1.281,0,0,0,1.04.52,1.318,1.318,0,0,0,.78-.26l10.855-8.116,13.092,9.8a1.3,1.3,0,0,0,1.821-.26,1.3,1.3,0,0,0-.26-1.821Z" transform="translate(7.89 3.901)" fill="#cbcbcb"/><path d="M12.139,6.069A6.069,6.069,0,1,1,6.069,0,6.069,6.069,0,0,1,12.139,6.069Z" transform="translate(0 0)" fill="#292d32"/><path d="M12.139,6.069A6.069,6.069,0,1,1,6.069,0,6.069,6.069,0,0,1,12.139,6.069Z" transform="translate(0 19.075)" fill="#292d32"/></g></g><rect width="36" height="36" transform="translate(-0.441 -0.054)" fill="none"/></g></svg>