<svg xmlns="http://www.w3.org/2000/svg" width="36" height="36" viewBox="0 0 36 36"><g transform="translate(0.441 0.018)"><g transform="translate(0.24 -0.018)"><g transform="translate(0)"><path d="M33.549,16.774A16.774,16.774,0,1,1,16.774,0,16.774,16.774,0,0,1,33.549,16.774Z" transform="translate(0)" fill="#cbcbcb"/><path d="M4.507,5.743a1.23,1.23,0,0,1-.865-.353L.358,2.106a1.247,1.247,0,0,1,0-1.748,1.247,1.247,0,0,1,1.748,0L5.39,3.642a1.247,1.247,0,0,1,0,1.748A1.3,1.3,0,0,1,4.507,5.743Z" transform="translate(29.571 29.571)" fill="#292d32"/></g></g><rect width="36" height="36" transform="translate(-0.441 -0.018)" fill="none"/></g></svg>