<svg xmlns="http://www.w3.org/2000/svg" width="36" height="36" viewBox="0 0 36 36"><g transform="translate(0.441 -0.45)"><g transform="translate(-0.441 0.45)"><g transform="translate(0 0)"><path d="M25.455,0H10.423C3.893,0,0,3.893,0,10.423V25.438c0,6.548,3.893,10.441,10.423,10.441H25.438c6.53,0,10.423-3.893,10.423-10.423V10.423C35.878,3.893,31.985,0,25.455,0Z" transform="translate(0 0)" fill="#cbcbcb"/><path d="M6.745,3.373A3.373,3.373,0,1,1,3.373,0,3.373,3.373,0,0,1,6.745,3.373Z" transform="translate(20.845 7.839)" fill="#101f23"/><path d="M6.745,3.373A3.373,3.373,0,1,1,3.373,0,3.373,3.373,0,0,1,6.745,3.373Z" transform="translate(8.288 7.839)" fill="#101f23"/><path d="M15.194,0H2.278A2.285,2.285,0,0,0,0,2.3a8.754,8.754,0,1,0,17.508,0A2.34,2.34,0,0,0,15.194,0Z" transform="translate(9.203 19.589)" fill="#101f23"/></g></g><rect width="36" height="36" transform="translate(-0.441 0.45)" fill="none"/></g></svg>