<svg xmlns="http://www.w3.org/2000/svg" width="78" height="78" viewBox="0 0 78 78"><g transform="translate(0 0.023)"><g transform="translate(16.45 11.177)"><g transform="translate(0 0)"><path d="M24.272.586a2.765,2.765,0,0,0-3.4,0C15.568,4.631-.083,17.827,0,33.2a22.6,22.6,0,0,0,45.2.028C45.224,18.078,29.545,4.659,24.272.586Z" transform="translate(0 0)" fill="#cbcbcb"/><path d="M24.663,34.037a21.4,21.4,0,0,1-.753,4.994l-19.724,9.6v7.086q-1.046.084-2.092.084T0,55.714V.865C.139.753.251.67.363.586a2.805,2.805,0,0,1,3.432,0c.112.084.251.2.391.307V16.07l10.546-5.133c.921,1.06,1.785,2.148,2.65,3.292a1.062,1.062,0,0,1-.363.251L4.185,20.729v9.29l17.548-8.537c.028,0,.028-.028.056-.028a27.468,27.468,0,0,1,1.562,3.878L4.185,34.678v9.29l18.469-8.983Z" transform="translate(20.478 0)" fill="#292d32"/></g></g><rect width="78" height="78" transform="translate(0 -0.023)" fill="none"/></g></svg>