<svg xmlns="http://www.w3.org/2000/svg" width="78" height="78" viewBox="0 0 78 78"><g transform="translate(0.285 -0.212)"><g transform="translate(11.167 11.292)"><rect width="40.469" height="26.305" transform="translate(6.915 27.153)" fill="#cbcbcb"/><g transform="translate(0 0)"><path d="M15.807.336a1.948,1.948,0,0,0-1.793-.2,15.315,15.315,0,0,1-11.375,0,1.948,1.948,0,0,0-1.793.2A1.891,1.891,0,0,0,0,1.924V17.3a1.935,1.935,0,0,0,1.921,1.921A1.935,1.935,0,0,0,3.843,17.3V12.223a19.022,19.022,0,0,0,4.483.564A19.143,19.143,0,0,0,15.448,11.4a1.93,1.93,0,0,0,1.2-1.793V1.924A1.891,1.891,0,0,0,15.807.336Z" transform="translate(25.619 0)" fill="#cbcbcb"/><path d="M53.16,35.867h-3.2V9.607C49.958,3.407,46.55,0,40.35,0H14.731c-6.2,0-9.607,3.407-9.607,9.607v26.26h-3.2a1.921,1.921,0,0,0,0,3.843H53.16a1.921,1.921,0,1,0,0-3.843ZM46.115,14.091V35.867h-6.43V14.091ZM25.594,35.867h-6.4V14.091h6.4Zm3.843-21.776h6.4V35.867h-6.4Zm-20.47,0h6.379V35.867H8.967Z" transform="translate(0 15.375)" fill="#292d32"/></g></g><rect width="78" height="78" transform="translate(-0.285 0.212)" fill="none"/></g></svg>