<svg xmlns="http://www.w3.org/2000/svg" width="78" height="78" viewBox="0 0 78 78"><g transform="translate(0.285 0.084)"><g transform="translate(11.365 12.904)"><g transform="translate(0 0)"><path d="M45.93,18.951V49.536H0L.127,18.925A5.05,5.05,0,0,1,2.087,14.93L19.9,1.088a5.046,5.046,0,0,1,6.26,0l3.41,2.646L40.84,12.487l3.13,2.443A5.063,5.063,0,0,1,45.93,18.951Z" transform="translate(4.326 0)" fill="#cbcbcb"/><g transform="translate(0 47.628)"><path d="M52.8,3.817H1.908A1.922,1.922,0,0,1,0,1.908,1.922,1.922,0,0,1,1.908,0H52.8a1.922,1.922,0,0,1,1.908,1.908A1.922,1.922,0,0,1,52.8,3.817Z" fill="#101f23"/></g><path d="M8.906,0H3.817A3.812,3.812,0,0,0,0,3.817v8.906H12.723V3.817A3.812,3.812,0,0,0,8.906,0Z" transform="translate(20.993 36.814)" fill="#101f23"/><path d="M7.634,8.906H2.545A2.552,2.552,0,0,1,0,6.361V2.545A2.552,2.552,0,0,1,2.545,0H7.634a2.552,2.552,0,0,1,2.545,2.545V6.361A2.552,2.552,0,0,1,7.634,8.906Z" transform="translate(13.359 19.638)" fill="#101f23"/><path d="M7.634,8.906H2.545A2.552,2.552,0,0,1,0,6.361V2.545A2.552,2.552,0,0,1,2.545,0H7.634a2.552,2.552,0,0,1,2.545,2.545V6.361A2.552,2.552,0,0,1,7.634,8.906Z" transform="translate(31.171 19.638)" fill="#101f23"/><path d="M11.272,8.753,0,0H8.677a2.53,2.53,0,0,1,2.545,2.519Z" transform="translate(33.894 3.734)" fill="#101f23"/></g></g><rect width="78" height="78" transform="translate(-0.285 -0.085)" fill="none"/></g></svg>