<svg xmlns="http://www.w3.org/2000/svg" width="78" height="78" viewBox="0 0 78 78"><g transform="translate(0.285 0.257)"><g transform="translate(15.084 11.739)"><g transform="translate(0 0)"><path d="M47.169,13.873v22.2H7.908A7.922,7.922,0,0,0,0,43.979V13.873C0,2.775,2.775,0,13.873,0H33.3C44.395,0,47.169,2.775,47.169,13.873Z" transform="translate(0 0)" fill="#cbcbcb"/><path d="M47.169,0V9.711a9.722,9.722,0,0,1-9.711,9.711H9.711A9.722,9.722,0,0,1,0,9.711v-1.8A7.922,7.922,0,0,1,7.908,0Z" transform="translate(0 36.071)" fill="#292d32"/><path d="M24.278,3.212H2.081A1.9,1.9,0,0,1,0,1.606,1.9,1.9,0,0,1,2.081,0h22.2a1.9,1.9,0,0,1,2.081,1.606A1.9,1.9,0,0,1,24.278,3.212Z" transform="translate(10.405 21.989)" fill="#292d32"/><path d="M24.278,3.212H2.081A1.9,1.9,0,0,1,0,1.606,1.9,1.9,0,0,1,2.081,0h22.2a1.9,1.9,0,0,1,2.081,1.606A1.9,1.9,0,0,1,24.278,3.212Z" transform="translate(10.403 28.511)" fill="#292d32"/></g><path d="M9.941,9.341V3.183A2.8,2.8,0,0,0,6.965.174c-1.777,0-2.54.992-2.9,2.714L3.39,6.169c-.065.338-.163.381-.262.381s-.142-.044-.142-.316V.4H0V6.671a2.68,2.68,0,0,0,2.954,3c1.788,0,2.452-.9,2.845-2.7L6.573,3.4c.022-.1.076-.218.163-.218s.174.044.174.294V9.341Zm10.911-3.39V5.766a3.073,3.073,0,0,0-3.4-3.412h-.381V.011H10.9V3.03h2.932V5.319h2.856c.567,0,.785.24.785.632s-.207.589-.785.589H11.63V9.7h5.559C19.816,9.7,20.851,8.513,20.851,5.951ZM31.795,3.259V.4H30.759V0H27.7V.4H25.233V3.259H27.7v1.1h-.033a2.348,2.348,0,0,0-2.518,2.3c-.262-.011-.327-.1-.327-.392V0H21.832V7.128c0,1.711.807,2.529,2.66,2.529h.97V8.513a2.116,2.116,0,0,0,2.016,1.2h.872c1.7,0,2.5-.643,2.529-2.245h.9V4.36H30.759v-1.1ZM28.328,6.823a.359.359,0,0,1-.349.381h-.087c-.24,0-.371-.131-.371-.392a.326.326,0,0,1,.349-.327h.458Z" transform="translate(7.686 7.475)" fill="#292d32"/></g><rect width="78" height="78" transform="translate(-0.285 -0.257)" fill="none"/></g></svg>