<svg xmlns="http://www.w3.org/2000/svg" width="78" height="78" viewBox="0 0 78 78"><g transform="translate(0.285 -0.125)"><g transform="translate(12.915 11.85)"><g transform="translate(0 0)"><path d="M34.95,0V13.5a9.387,9.387,0,0,1-5.971,8.3l-8.737,2.9a10,10,0,0,1-5.533,0L5.971,21.8A9.344,9.344,0,0,1,0,13.5L.027,0,12.134,7.888a10.71,10.71,0,0,0,10.792,0Z" transform="translate(8.32 29.698)" fill="#cbcbcb"/><path d="M47.652,12.223,31.245,1.459a10.71,10.71,0,0,0-10.792,0L3.965,12.223a8.727,8.727,0,0,0,0,14.626L8.347,29.7l12.106,7.888a10.71,10.71,0,0,0,10.792,0L43.27,29.7l3.752-2.465v8.381a2.054,2.054,0,1,0,4.109,0V22.138A8.7,8.7,0,0,0,47.652,12.223Z" transform="translate(0 0)" fill="#292d32"/></g></g><rect width="78" height="78" transform="translate(-0.285 0.124)" fill="none"/></g></svg>