<svg xmlns="http://www.w3.org/2000/svg" width="78" height="78" viewBox="0 0 78 78"><g transform="translate(0.312 0.319)"><g transform="translate(11.089 11.171)"><g transform="translate(0 0)"><path d="M38.917,40.845l1.074,8.7a2.741,2.741,0,0,1-4.131,2.7l-11.54-6.858a27.491,27.491,0,0,1-3.718-.248,13.388,13.388,0,0,0,3.25-8.7c0-7.822-6.775-14.156-15.148-14.156A15.653,15.653,0,0,0,.11,24.788,17.458,17.458,0,0,1,0,22.694C0,10.163,10.879,0,24.319,0S48.639,10.163,48.639,22.694A22.183,22.183,0,0,1,38.917,40.845Z" transform="translate(6.445 0)" fill="#cbcbcb"/><path d="M30.3,14.156a13.388,13.388,0,0,1-3.25,8.7,15.38,15.38,0,0,1-11.9,5.426L7.96,32.554a1.723,1.723,0,0,1-2.589-1.68l.689-5.426A13.738,13.738,0,0,1,0,14.156,13.835,13.835,0,0,1,6.555,2.506,15.653,15.653,0,0,1,15.148,0C23.521,0,30.3,6.334,30.3,14.156Z" transform="translate(0 22.281)" fill="#292d32"/></g></g><rect width="78" height="78" transform="translate(-0.312 -0.319)" fill="none"/></g></svg>