<svg xmlns="http://www.w3.org/2000/svg" width="78" height="78" viewBox="0 0 78 78"><g transform="translate(0.312 -0.446)"><g transform="translate(11.188 15.446)"><g transform="translate(0 0)"><path d="M23.085,17.858l19.1-14.275A1.99,1.99,0,0,0,39.8.4L19.768,15.39,5.042,4.379A1.99,1.99,0,0,0,2.654,7.563l13.8,10.321L.8,29.612A1.991,1.991,0,0,0,.4,32.4a1.96,1.96,0,0,0,1.592.8,2.016,2.016,0,0,0,1.194-.4l16.61-12.418L39.827,35.369a1.99,1.99,0,0,0,2.786-.4,1.991,1.991,0,0,0-.4-2.786Z" transform="translate(12.072 5.969)" fill="#cbcbcb"/><path d="M18.573,9.287A9.287,9.287,0,1,1,9.287,0,9.287,9.287,0,0,1,18.573,9.287Z" transform="translate(0 0)" fill="#292d32"/><path d="M18.573,9.287A9.287,9.287,0,1,1,9.287,0,9.287,9.287,0,0,1,18.573,9.287Z" transform="translate(0 29.187)" fill="#292d32"/></g></g><rect width="78" height="78" transform="translate(-0.312 0.446)" fill="none"/></g></svg>