<svg xmlns="http://www.w3.org/2000/svg" width="78" height="78" viewBox="0 0 78 78"><g transform="translate(0.312 0.084)"><g transform="translate(11.888 12.015)"><g transform="translate(0 0)"><path d="M38.021,0H15.568C5.814,0,0,5.814,0,15.568V37.995c0,9.78,5.814,15.594,15.568,15.594H37.995c9.753,0,15.568-5.814,15.568-15.568V15.568C53.589,5.814,47.774,0,38.021,0Z" transform="translate(0 0)" fill="#cbcbcb"/><path d="M10.075,5.037A5.037,5.037,0,1,1,5.037,0,5.037,5.037,0,0,1,10.075,5.037Z" transform="translate(31.135 11.709)" fill="#101f23"/><path d="M10.075,5.037A5.037,5.037,0,1,1,5.037,0,5.037,5.037,0,0,1,10.075,5.037Z" transform="translate(12.379 11.709)" fill="#101f23"/><path d="M22.695,0H3.4A3.414,3.414,0,0,0,0,3.43a13.076,13.076,0,1,0,26.151,0A3.5,3.5,0,0,0,22.695,0Z" transform="translate(13.746 29.26)" fill="#101f23"/></g></g><rect width="78" height="78" transform="translate(-0.312 -0.085)" fill="none"/></g></svg>