<svg xmlns="http://www.w3.org/2000/svg" width="78" height="78" viewBox="0 0 78 78"><g transform="translate(0.285 -0.446)"><g transform="translate(12.565 11.946)"><g transform="translate(0 0)"><path d="M19.256,15.13V11H5.5A5.379,5.379,0,0,1,1.623,9.381,5.379,5.379,0,0,1,0,5.5,5.541,5.541,0,0,1,4.979.028,3.159,3.159,0,0,1,5.5,0H46.766a3.159,3.159,0,0,1,.523.028,5.231,5.231,0,0,1,3.356,1.6A5.435,5.435,0,0,1,52.24,6,5.693,5.693,0,0,1,46.463,11H33.011V15.13a6.877,6.877,0,0,1-13.755,0Z" transform="translate(0 33.011)" fill="#12323a"/><path d="M44.993,9.078l-1.32,23.961a3.159,3.159,0,0,0-.523-.028H1.886a3.159,3.159,0,0,0-.523.028L.043,9.078A8.242,8.242,0,0,1,8.241,0H36.8A8.242,8.242,0,0,1,44.993,9.078Z" transform="translate(3.615 0)" fill="#fff"/><path d="M4.126,0V13.755a2.078,2.078,0,0,1-2.063,2.063A2.078,2.078,0,0,1,0,13.755V0Z" transform="translate(13.039 0)" fill="#12323a"/><path d="M4.126,0V5.5A2.078,2.078,0,0,1,2.063,7.565,2.078,2.078,0,0,1,0,5.5V0Z" transform="translate(24.071 0)" fill="#12323a"/></g></g><rect width="78" height="78" transform="translate(-0.285 0.446)" fill="none"/></g></svg>