<svg xmlns="http://www.w3.org/2000/svg" width="78" height="78" viewBox="0 0 78 78"><g transform="translate(0.312 0.11)"><g transform="translate(16.688 11.747)"><g transform="translate(0 0)"><path d="M38.485,8.121,38.1,7.9,34.234,5.676,26.259,1.063a9.258,9.258,0,0,0-8.614,0L9.67,5.676,5.808,7.926l-.5.278C.333,11.539,0,12.15,0,17.513v12.81c0,5.363.333,5.974,5.419,9.392l12.226,7.058a8.533,8.533,0,0,0,4.307,1.056,8.606,8.606,0,0,0,4.307-1.056L38.6,39.632C43.57,36.3,43.9,35.686,43.9,30.323V17.513C43.9,12.15,43.57,11.539,38.485,8.121Z" transform="translate(0 7.746)" fill="#fff"/><path d="M0,15.672l3.862-2.251,7.614-4.39.361-.222a9.258,9.258,0,0,1,8.614,0l.361.222,7.614,4.39,3.862,2.223V9.7c0-6.252-3.446-9.7-9.7-9.7H9.67C3.418,0,0,3.446,0,9.7Z" transform="translate(5.808 0)" fill="#12323a"/><path d="M16.368,7.982l-1.723,2.112a2.088,2.088,0,0,0-.445,1.334l.167,2.723a1.786,1.786,0,0,1-2.64,1.917l-2.529-1a2.557,2.557,0,0,0-1.445,0l-2.529,1a1.786,1.786,0,0,1-2.64-1.917l.167-2.723a2.087,2.087,0,0,0-.445-1.334L.585,7.982a1.789,1.789,0,0,1,1-3.112L4.225,4.2a2.206,2.206,0,0,0,1.139-.861L6.837,1.063a1.8,1.8,0,0,1,3.279,0l1.473,2.279a2.206,2.206,0,0,0,1.139.861l2.64.667A1.789,1.789,0,0,1,16.368,7.982Z" transform="translate(13.475 23.529)" fill="#12323a"/></g></g><rect width="78" height="78" transform="translate(-0.312 -0.11)" fill="none"/></g></svg>