<svg xmlns="http://www.w3.org/2000/svg" width="78" height="78" viewBox="0 0 78 78"><g transform="translate(0.285 0.023)"><g transform="translate(16.602 11.43)"><g transform="translate(0 0)"><path d="M32.6,24.6H11.636C.2,24.6-2.069,17.691,1.644,9.282L5.575.355a52.6,52.6,0,0,1,16.544,2.4C30.31,5.487,38.036.328,38.036.328L38.555,0l4.068,9.31C46.281,17.718,43.878,24.6,32.6,24.6Z" transform="translate(0 30.004)" fill="#12323a"/><path d="M32.979,30l-.519.328s-7.726,5.16-15.916,2.43A52.6,52.6,0,0,0,0,30.359L7.644,12.941H6.825A6.47,6.47,0,0,1,6.825,0H26.236a6.457,6.457,0,0,1,4.587,1.911,6.375,6.375,0,0,1,1.72,6.143,6.682,6.682,0,0,1-6.607,4.887H25.5Z" transform="translate(5.575 0)" fill="#fff"/></g></g><rect width="78" height="78" transform="translate(-0.285 -0.023)" fill="none"/></g></svg>