<svg xmlns="http://www.w3.org/2000/svg" width="78" height="78" viewBox="0 0 78 78"><g transform="translate(0 0.257)"><g transform="translate(11.074 11.522)"><g transform="translate(0 0)"><path d="M0,30.605V13.922A13.931,13.931,0,0,1,13.949,0h27.9A13.931,13.931,0,0,1,55.8,13.922V33.395A13.925,13.925,0,0,1,41.848,47.289H37.663A2.828,2.828,0,0,0,35.432,48.4l-4.185,5.552a3.964,3.964,0,0,1-6.7,0L20.366,48.4a3.1,3.1,0,0,0-2.232-1.116H13.949A13.925,13.925,0,0,1,0,33.395Z" transform="translate(0 0)" fill="#fff"/></g><g transform="translate(9.795 18.413)"><path d="M10.985,7.492V.545c0-3.459-.976-4.645-4.659-4.645H4.778C1.1-4.1.3-2.914.3.545V7.492H4.276V5.776H7.038V7.492ZM7.038,2.149H4.276V.545c0-.725.112-.935.739-.935H6.284c.642,0,.753.209.753.935Zm16.99,2.023V3.809a2.679,2.679,0,0,0-1.228-2.3,2.619,2.619,0,0,0,.963-1.925V-.794c0-2.5-1.339-3.111-3.78-3.111h-7.2V7.478h7.561C23.191,7.478,24.028,6,24.028,4.172ZM19.4.043c0,.2-.265.4-.544.4H16.9V-.473h2.023c.321,0,.474.167.474.363Zm.223,3.515c0,.251-.153.391-.558.391H16.9V2.889h2.274c.307,0,.446.126.446.349Z" transform="translate(-0.3 4.1)" fill="#12323a"/><path d="M20.775,3.237V2.652H16.813v.307c0,.53-.307.99-1.269.99h-.46c-.893,0-1.493-.321-1.493-1.325V1.047c0-.907.335-1.381,1.437-1.381h.446c.879,0,1.269.293,1.269.879V.7h4V.141c0-2.734-1.548-4.241-5.273-4.241h-.642c-4.1,0-5.412,1.451-5.412,5.147V2.624c0,3.822,1.451,5.064,5.468,5.064h.656C19.24,7.687,20.775,6.348,20.775,3.237Z" transform="translate(15.406 4.1)" fill="#12323a"/></g></g><rect width="78" height="78" transform="translate(0 -0.257)" fill="none"/></g></svg>