<svg xmlns="http://www.w3.org/2000/svg" width="78" height="78" viewBox="0 0 78 78"><g transform="translate(0 -0.212)"><g transform="translate(11.522 14.737)"><g transform="translate(0 0)"><path d="M17.493,0V39.979a5.5,5.5,0,0,0-2.595.67L8.342,44.387C3.766,47.01,0,44.833,0,39.533V12.387A6.167,6.167,0,0,1,2.818,7.561L14.9.642A5.841,5.841,0,0,1,17.493,0Z" transform="translate(0 0.003)" fill="#fff"/><path d="M20,8.345V48.324a5.894,5.894,0,0,1-2.678-.5L2.678,40.484A5.894,5.894,0,0,0,0,39.982V0a5.894,5.894,0,0,1,2.678.5L17.325,7.843A5.894,5.894,0,0,0,20,8.345Z" transform="translate(17.493 0)" fill="#12323a"/><path d="M17.493,5.966V33.112a6.167,6.167,0,0,1-2.818,4.826L2.595,44.857A5.841,5.841,0,0,1,0,45.5V5.52a5.5,5.5,0,0,0,2.595-.67L9.151,1.112C13.726-1.511,17.493.665,17.493,5.966Z" transform="translate(37.496 2.825)" fill="#fff"/></g></g><rect width="78" height="78" transform="translate(0 0.212)" fill="none"/></g></svg>