<svg xmlns="http://www.w3.org/2000/svg" width="78" height="78" viewBox="0 0 78 78"><g transform="translate(0.285 0.319)"><g transform="translate(10.915 14.117)"><g transform="translate(0 0)"><path d="M55.617,15.545a29.7,29.7,0,0,1-1.446,9.2H1.446A29.7,29.7,0,0,1,0,15.545,15.439,15.439,0,0,1,27.809,6.2a15.439,15.439,0,0,1,27.809,9.344Z" transform="translate(0 0)" fill="#12323a"/><path d="M52.725,0C48.331,13.9,34.789,22.219,28.087,24.5a6.064,6.064,0,0,1-3.448,0C17.937,22.219,4.394,13.9,0,0Z" transform="translate(1.446 24.75)" fill="#fff"/></g></g><rect width="78" height="78" transform="translate(-0.285 -0.319)" fill="none"/></g></svg>