<svg xmlns="http://www.w3.org/2000/svg" width="78" height="78" viewBox="0 0 78 78"><g transform="translate(0.285 0.11)"><g transform="translate(16.714 11.964)"><g transform="translate(0 0)"><path d="M41.607,11.9A21.609,21.609,0,0,0,26.919.539a22.055,22.055,0,0,0-18.7,4.314A21.766,21.766,0,0,0,0,21.971C0,29.041,4.232,36.44,10.62,40.726v2.266a3.663,3.663,0,0,0,.874,2.894,4.709,4.709,0,0,0,3.495,1.092H28.994A4.561,4.561,0,0,0,32.352,45.8a4.083,4.083,0,0,0,.983-3.167V40.726C41.8,35.02,47.121,22.981,41.607,11.9Z" transform="translate(0 0)" fill="#fff"/><path d="M19.68,5.051a1.714,1.714,0,0,1-.519-.082,30.58,30.58,0,0,0-16.735,0A1.906,1.906,0,0,1,.078,3.658,1.885,1.885,0,0,1,1.388,1.31a34.5,34.5,0,0,1,18.838,0,1.9,1.9,0,0,1,1.31,2.348A1.974,1.974,0,0,1,19.68,5.051Z" transform="translate(11.143 49.544)" fill="#12323a"/></g></g><rect width="78" height="78" transform="translate(-0.285 -0.11)" fill="none"/></g></svg>