<svg xmlns="http://www.w3.org/2000/svg" width="78" height="78" viewBox="0 0 78 78"><g transform="translate(0.312 -0.212)"><g transform="translate(11.189 11.612)"><g transform="translate(0 0)"><path d="M30.3,0H13.771A13.776,13.776,0,0,0,0,13.771V30.3A13.776,13.776,0,0,0,13.771,44.068H30.3A13.776,13.776,0,0,0,44.068,30.3V13.771A13.776,13.776,0,0,0,30.3,0Zm6.225,28.258a8.252,8.252,0,0,1-8.263,8.263H15.809a8.252,8.252,0,0,1-8.263-8.263V15.809a8.252,8.252,0,0,1,8.263-8.263H28.231a8.252,8.252,0,0,1,8.263,8.263V28.258Z" transform="translate(5.508 5.508)" fill="#fff"/><path d="M4.131,2.066V5.508H3.966A13.546,13.546,0,0,0,0,6.087V2.066a2.066,2.066,0,0,1,4.131,0Z" transform="translate(15.313 0)" fill="#12323a"/><path d="M4.131,2.066V5.508H0V2.066A2.081,2.081,0,0,1,2.066,0,2.081,2.081,0,0,1,4.131,2.066Z" transform="translate(25.477 0)" fill="#12323a"/><path d="M4.131,2.066V6.087A13.732,13.732,0,0,0,.138,5.508H0V2.066A2.081,2.081,0,0,1,2.066,0,2.081,2.081,0,0,1,4.131,2.066Z" transform="translate(35.667 0)" fill="#12323a"/><path d="M6.087,2.066A2.046,2.046,0,0,1,4.021,4.131H.578V3.994A13.732,13.732,0,0,0,0,0H4.021A2.063,2.063,0,0,1,6.087,2.066Z" transform="translate(48.998 15.286)" fill="#12323a"/><path d="M5.508,2.066A2.063,2.063,0,0,1,3.443,4.131H0V0H3.443A2.046,2.046,0,0,1,5.508,2.066Z" transform="translate(49.576 25.477)" fill="#12323a"/><path d="M6.087,2.066A2.063,2.063,0,0,1,4.021,4.131H0A13.732,13.732,0,0,0,.578.138V0H4.021A2.046,2.046,0,0,1,6.087,2.066Z" transform="translate(48.998 35.667)" fill="#12323a"/><path d="M4.131,0V4.021A2.081,2.081,0,0,1,2.066,6.087,2.081,2.081,0,0,1,0,4.021V.578H.138A13.732,13.732,0,0,0,4.131,0Z" transform="translate(35.667 48.998)" fill="#12323a"/><path d="M4.131,0V3.443A2.066,2.066,0,0,1,0,3.443V0Z" transform="translate(25.504 49.576)" fill="#12323a"/><path d="M4.131.578V4.021A2.066,2.066,0,0,1,0,4.021V0A13.546,13.546,0,0,0,3.966.578Z" transform="translate(15.313 48.998)" fill="#12323a"/><path d="M6.087,0a13.732,13.732,0,0,0-.578,3.994v.138H2.066A2.066,2.066,0,0,1,2.066,0Z" transform="translate(0 15.286)" fill="#12323a"/><path d="M5.508,0V4.131H2.066A2.066,2.066,0,0,1,2.066,0Z" transform="translate(0 25.477)" fill="#12323a"/><path d="M6.087,4.131H2.066A2.066,2.066,0,0,1,2.066,0H5.508V.138A13.732,13.732,0,0,0,6.087,4.131Z" transform="translate(0 35.667)" fill="#12323a"/><path d="M28.974,8.263V20.684a8.252,8.252,0,0,1-8.263,8.263H8.263A8.252,8.252,0,0,1,0,20.684V8.263A8.252,8.252,0,0,1,8.263,0H20.684A8.293,8.293,0,0,1,28.974,8.263Z" transform="translate(13.055 13.055)" fill="#12323a"/></g></g><rect width="78" height="78" transform="translate(-0.312 0.212)" fill="none"/></g></svg>