<svg xmlns="http://www.w3.org/2000/svg" width="78" height="78" viewBox="0 0 78 78"><g transform="translate(0.312 0.257)"><g transform="translate(10.938 11.043)"><g transform="translate(0 0)"><path d="M39.375,0H16.122C6.021,0,0,6.021,0,16.122V39.347C0,49.476,6.021,55.5,16.122,55.5H39.347c10.1,0,16.122-6.021,16.122-16.122V16.122C55.5,6.021,49.476,0,39.375,0Z" transform="translate(0)" fill="#fff"/><path d="M14.568,4.162H2.081A2.1,2.1,0,0,1,0,2.081,2.1,2.1,0,0,1,2.081,0H14.568a2.1,2.1,0,0,1,2.081,2.081A2.1,2.1,0,0,1,14.568,4.162Z" transform="translate(9.018 14.734)" fill="#12323a"/><path d="M14.568,4.162H2.081A2.1,2.1,0,0,1,0,2.081,2.1,2.1,0,0,1,2.081,0H14.568a2.1,2.1,0,0,1,2.081,2.081A2.1,2.1,0,0,1,14.568,4.162Z" transform="translate(29.83 31.384)" fill="#12323a"/><path d="M14.568,4.162H2.081A2.1,2.1,0,0,1,0,2.081,2.1,2.1,0,0,1,2.081,0H14.568a2.1,2.1,0,0,1,2.081,2.081A2.1,2.1,0,0,1,14.568,4.162Z" transform="translate(29.83 41.789)" fill="#12323a"/><path d="M14.568,6.243H10.461V2.081a2.081,2.081,0,0,0-4.162,0V6.243H2.081a2.081,2.081,0,0,0,0,4.162H6.3v4.162a2.081,2.081,0,0,0,4.162,0V10.406h4.107a2.081,2.081,0,0,0,0-4.162Z" transform="translate(29.83 8.491)" fill="#12323a"/><path d="M11.259,8.318l4.773-4.773A2.08,2.08,0,1,0,13.09.6L8.318,5.376,3.545.6A2.08,2.08,0,0,0,.6,3.545L5.376,8.318.6,13.09a2.094,2.094,0,0,0,0,2.941,2.077,2.077,0,0,0,2.941,0l4.773-4.773,4.773,4.773a2.077,2.077,0,0,0,2.941,0,2.094,2.094,0,0,0,0-2.941Z" transform="translate(9.025 30.364)" fill="#12323a"/></g></g><rect width="78" height="78" transform="translate(-0.312 -0.257)" fill="none"/></g></svg>