<svg xmlns="http://www.w3.org/2000/svg" width="78" height="78" viewBox="0 0 78 78"><g transform="translate(0 -0.446)"><g transform="translate(11.521 11.612)"><g transform="translate(0 0)"><path d="M19.753,0V22.2A9.957,9.957,0,1,1,15.9,14.443V1.1Z" transform="translate(0 22.94)" fill="#12323a"/><path d="M19.753,0V25.2a9.877,9.877,0,1,1-9.876-9.849,9.687,9.687,0,0,1,6.052,2.118V1.1Z" transform="translate(29.162 14.632)" fill="#12323a"/><path d="M33.013,8.745v5.887L0,24.041V13.064A8.242,8.242,0,0,1,6.328,4.838L22.229.491c3.219-.88,5.942-.578,7.868.908C32.05,2.857,33.013,5.333,33.013,8.745Z" transform="translate(15.901)" fill="#fff"/></g></g><rect width="78" height="78" transform="translate(0 0.446)" fill="none"/></g></svg>