<svg xmlns="http://www.w3.org/2000/svg" width="78" height="78" viewBox="0 0 78 78"><g transform="translate(0 0.084)"><g transform="translate(12.348 12.252)"><g transform="translate(0 0)"><path d="M53.407,11.794V29.177H0V11.794A11.813,11.813,0,0,1,11.794,0H41.613A11.813,11.813,0,0,1,53.407,11.794Z" transform="translate(0 0)" fill="#12323a"/><path d="M0,0V.535A11.8,11.8,0,0,0,11.794,12.329h10.27A2.682,2.682,0,0,1,24.738,15V17.6a2.682,2.682,0,0,1-2.674,2.674H15.592a2.006,2.006,0,1,0,0,4.012H37.923a2.006,2.006,0,1,0,0-4.012H31.451A2.682,2.682,0,0,1,28.776,17.6V15a2.682,2.682,0,0,1,2.674-2.674H41.64A11.8,11.8,0,0,0,53.434.535V0Z" transform="translate(0 29.204)" fill="#fff"/></g></g><rect width="78" height="78" transform="translate(0 -0.085)" fill="none"/></g></svg>