<svg xmlns="http://www.w3.org/2000/svg" width="78" height="78" viewBox="0 0 78 78"><g transform="translate(0 0.11)"><g transform="translate(14.3 11.747)"><g transform="translate(0 0)"><path d="M27.123,13.562A13.562,13.562,0,1,1,13.562,0,13.562,13.562,0,0,1,27.123,13.562Z" transform="translate(11.093)" fill="#fff"/><path d="M24.655,0C11.066,0,0,9.113,0,20.342A1.343,1.343,0,0,0,1.356,21.7h46.6a1.343,1.343,0,0,0,1.356-1.356C49.31,9.113,38.244,0,24.655,0Z" transform="translate(0 33.904)" fill="#12323a"/></g></g><rect width="78" height="78" transform="translate(0 -0.11)" fill="none"/></g></svg>