<svg xmlns="http://www.w3.org/2000/svg" width="24" height="24" viewBox="0 0 24 24"><g transform="translate(-8595 3523)"><g transform="translate(8570.87 -3862)"><path d="M8.015,13.625V2.4A2.125,2.125,0,0,0,5.61,0H2.4A2.125,2.125,0,0,0,0,2.4V13.625a2.125,2.125,0,0,0,2.4,2.4H5.61A2.125,2.125,0,0,0,8.015,13.625Z" transform="translate(35.8 343)" fill="none" stroke="#999" stroke-linecap="round" stroke-width="2.1"/><path d="M0,0H4.007" transform="translate(35.8 346.206)" fill="none" stroke="#999" stroke-linecap="round" stroke-width="2.1"/><path d="M0,0H3.206" transform="translate(35.8 355.824)" fill="none" stroke="#999" stroke-linecap="round" stroke-width="2.1"/><path d="M0,0,4.007.04" transform="translate(35.8 352.578)" fill="none" stroke="#999" stroke-linecap="round" stroke-width="2.1"/><path d="M0,0H2.4" transform="translate(35.8 349.412)" fill="none" stroke="#999" stroke-linecap="round" stroke-width="2.1"/><path d="M2.372,0A2.376,2.376,0,0,0,0,2.364V12.752A2.831,2.831,0,0,0,.337,13.97l.657,1.09a1.473,1.473,0,0,0,2.749,0L4.4,13.97a2.831,2.831,0,0,0,.337-1.218V2.364A2.374,2.374,0,0,0,2.372,0Z" transform="translate(28.53 343)" fill="none" stroke="#999" stroke-linecap="round" stroke-width="2.1"/><path d="M4.737,0H0" transform="translate(28.53 347.007)" fill="none" stroke="#999" stroke-linecap="round" stroke-width="2.1"/></g><rect width="24" height="24" transform="translate(8595 -3523)" fill="none"/></g></svg>