<svg xmlns="http://www.w3.org/2000/svg" width="426.291" height="361.67" viewBox="0 0 426.291 361.67"><g transform="translate(-248 -181.316)"><g transform="translate(248 181.316)"><path d="M388.778,22.991H.67a27.569,27.569,0,0,1,3.115-8.713A27.9,27.9,0,0,1,28.118,0H361.33a27.89,27.89,0,0,1,24.326,14.279A27.58,27.58,0,0,1,388.778,22.991Z" transform="translate(-0.238)" fill="#e6e6e6"/><path d="M388.54,21.349a24.453,24.453,0,0,0-3.121-8.09A28.3,28.3,0,0,0,361.092,0H27.88A28.308,28.308,0,0,0,3.547,13.258a24.44,24.44,0,0,0-3.115,8.09A23.961,23.961,0,0,0,0,25.888V246.519c0,14.276,12.505,25.888,27.88,25.888H361.092a29.653,29.653,0,0,0,9.113-1.425c10.912-3.509,18.767-13.151,18.767-24.463V25.888a24.012,24.012,0,0,0-.432-4.539Zm-.858,225.171c0,12.492-10,22.822-22.966,24.463a28.9,28.9,0,0,1-3.624.228H67.485c-36.561,0-66.195-27.523-66.195-61.471V25.888a22.952,22.952,0,0,1,.451-4.539,23.373,23.373,0,0,1,3.289-8.09A27.031,27.031,0,0,1,27.88,1.2H361.092a27.031,27.031,0,0,1,22.85,12.061,23.371,23.371,0,0,1,3.289,8.09,22.949,22.949,0,0,1,.451,4.539Z" transform="translate(0 0)" fill="#e6e6e6"/><path d="M333.472,18.819H194.649a2.34,2.34,0,0,1,0-4.679H333.472a2.34,2.34,0,1,1,0,4.679Z" transform="translate(-68.285 -5.021)" fill="#fff"/></g><g transform="translate(268.201 227.875)"><path d="M574.789,384.693H333.863a5.234,5.234,0,0,1-5.341-5.107V318.9a5.234,5.234,0,0,1,5.341-5.106H574.789a5.234,5.234,0,0,1,5.341,5.106v60.69A5.234,5.234,0,0,1,574.789,384.693Z" transform="translate(-328.522 -313.79)" fill="#fff" stroke="#ff4133" stroke-width="1.4"/><path d="M561.74,356.517h-213.6a2.471,2.471,0,1,1,0-4.935h213.6a2.471,2.471,0,1,1,0,4.935Z" transform="translate(-329.137 -311.3)" fill="#2b44ff"/><path d="M530.66,366.633H348.011a2.468,2.468,0,1,1,0-4.935H530.66a2.468,2.468,0,1,1,0,4.935Z" transform="translate(-329.137 -309.738)" fill="#2b44ff"/><circle cx="12.53" cy="12.53" r="12.53" transform="translate(16.886 7.055)" fill="#ff4133"/><circle cx="7.229" cy="7.229" r="7.229" transform="translate(48.693 17.658)" fill="#ff4133"/></g><g transform="translate(501.859 248.723)"><g transform="translate(0 0)"><g transform="translate(59.771 16.441)"><g transform="translate(2.382 2.51)"><path d="M23.29,23.809c3.181-3.734,5.334-8.31,4.974-13.437C27.228-4.4,6.663-1.151,2.662,6.305s-3.525,26.37,1.645,27.7c2.062.531,6.454-.77,10.924-3.465L12.426,50.394H28.994Z" transform="translate(0 0)" fill="#b28b67" fill-rule="evenodd"/></g><path d="M68.551,38.435c2.248,1.258,3.848,3.614,5.774,6.705a4.143,4.143,0,0,1,4.409,6.819c.958,1.353,2.033,2.766,3.263,4.224,4.593-2.756,8.009-10.787,3.624-18.54-3.773-15.53-25.154-5.891-29.267-8.51C55.455,34.769,58.355,39.313,68.551,38.435Z" transform="translate(-56.2 -28.538)" fill="#191847" fill-rule="evenodd"/></g><g transform="translate(0 129.276)"><path d="M205.329,0,171.447,85.757l-22.725,72.5h-8.974L174.49,0Z" transform="translate(-113.516)" fill="#997659" fill-rule="evenodd"/><path d="M65.737,0C66.1,30.136,71.359,70.708,72.2,72.587q.841,1.879,58.042,47.777l-6.181,6.614Q56.57,87.625,53.446,82.377C50.323,77.128,40.155,28.83,31.992,0Z" transform="translate(32.899)" fill="#b28b67" fill-rule="evenodd"/><g transform="matrix(-0.643, 0.766, -0.766, -0.643, 172.432, 123.746)"><path d="M1.158,10.077A14.822,14.822,0,0,1,0,5.45,34.639,34.639,0,0,1,.622,0H39.558q1.518,5.017-1.752,5.418t-5.433.722l-18.1,8.068a.69.69,0,0,1-.912-.349l-.008-.018-1.163-2.822a12.415,12.415,0,0,0-4.92-1.412,11.141,11.141,0,0,0-4.247,1.242h0a1.381,1.381,0,0,1-1.83-.68Q1.176,10.124,1.158,10.077Z" transform="translate(0 0)" fill="#e4e4e4" fill-rule="evenodd"/></g><g transform="translate(0 150.72)"><path d="M39.923,24.352a14.822,14.822,0,0,1,1.158,4.628,34.638,34.638,0,0,1-.622,5.45H1.524Q.006,29.411,3.276,29.011t5.433-.722l18.1-8.068a.69.69,0,0,1,.912.349l.008.018,1.163,2.822a12.415,12.415,0,0,0,4.92,1.412,11.141,11.141,0,0,0,4.247-1.242h0a1.381,1.381,0,0,1,1.83.68Q39.906,24.305,39.923,24.352Z" transform="translate(-1.043 -20.161)" fill="#e4e4e4" fill-rule="evenodd"/></g><path d="M175.784,150.79l-42.665-4.631L164.739,0h38.214Z" transform="translate(-106.752 0)" fill="#69a1ac" fill-rule="evenodd"/><path d="M138.062,109.693l-27.986,33.125Q65.861,94.528,58.521,79.8T45.324,0H88.346q3.2,57.246,4.313,59.91T138.062,109.693Z" transform="translate(16.253)" fill="#89c5cc" fill-rule="evenodd"/></g><g transform="translate(7.128)"><path d="M186.274,72.507l-15.683.058q17.916,57.673,19.021,60.394c1.657,4.08-1.85,10.295-3.349,13.634,4.884,2.172,4.364-5.871,10.525-3.022,5.624,2.6,9.9,7.31,16.4,3.326.8-.49,1.674-2.333-.441-3.774-5.269-3.59-12.863-9.873-13.889-11.941Q196.76,126.951,186.274,72.507Z" transform="translate(-64.665 30.627)" fill="#b28b67" fill-rule="evenodd"/><path d="M35.537,0,15.249,19.664A61.583,61.583,0,0,0,.739,27.951c-.848,1.017-1.771,2.963,2.218,2.092s8.225-1.61,8.975-.32-1.46,3.264-.074,4.951q1.386,1.687,9.321-10.732l21.1-12.358Z" transform="translate(40.42 4.854) rotate(98)" fill="#b28b67" fill-rule="evenodd"/><path d="M0,78.733l6.077,1.591c12.705-33.282,64.674-52.18,68.856-64.672,1.534-4.581-1.649-7.243.226-8.515L67.65.6c-1.5,1.456-4.141-1.677-10.369-.193S3.536,38.317,0,78.733Z" transform="matrix(0.052, -0.999, 0.999, 0.052, 11.087, 95.474)" fill="#db2721" fill-rule="evenodd"/><path d="M64.15,6.627c.714,45.362-25.679,56.933-19.8,75.13,4.855,15.027,51.321,31.182,59.362,16.451,3.255-5.962,4.732-13.174,4.9-21.014q3.083,9.034,4.876,15.556c2.063,7.5,10.059,8.692,10.059,11.581l10.535-2.889c-.715-3.925,4.252-5.836,2.92-14.606Q128.052,27.9,88.91,1.395l-.276-3.921a2.769,2.769,0,0,0-2.949-2.563l-19.5,1.355A2.758,2.758,0,0,0,63.625-.791s0,0,0,0Z" transform="translate(-0.746 56.862)" fill="#ff4133" fill-rule="evenodd"/></g></g></g><g transform="translate(268.201 307.8)"><path d="M574.789,395.765H333.863a5.65,5.65,0,0,1-5.341-5.9V319.694a5.65,5.65,0,0,1,5.341-5.9H574.789a5.65,5.65,0,0,1,5.341,5.9v70.168A5.65,5.65,0,0,1,574.789,395.765Z" transform="translate(-328.522 -313.79)" fill="#fff" stroke="#cecece" stroke-width="1.4"/><path d="M561.74,356.517h-213.6a2.471,2.471,0,1,1,0-4.935h213.6a2.471,2.471,0,1,1,0,4.935Z" transform="translate(-329.137 -311.3)" fill="#cecece"/><path d="M530.66,366.633H348.011a2.468,2.468,0,1,1,0-4.935H530.66a2.468,2.468,0,1,1,0,4.935Z" transform="translate(-329.137 -309.738)" fill="#cecece"/><circle cx="12.53" cy="12.53" r="12.53" transform="translate(16.886 7.055)" fill="#cecece"/><circle cx="7.229" cy="7.229" r="7.229" transform="translate(48.693 17.658)" fill="#cecece"/><path d="M543.714,366.981H348.185a2.642,2.642,0,1,1,0-5.283H543.714a2.642,2.642,0,1,1,0,5.283Z" transform="translate(-329.137 -296.811)" fill="#cecece"/></g><path d="M0,0-.014,15.431" transform="translate(519.81 243.962)" fill="none" stroke="#ff4133" stroke-linecap="round" stroke-width="1.4"/></g></svg>