<svg xmlns="http://www.w3.org/2000/svg" width="25.836" height="25.848" viewBox="0 0 25.836 25.848"><g transform="translate(-2.609 -2.584)"><path d="M18.326,25.848H7.508C2.807,25.848,0,23.036,0,18.327V7.51C0,2.807,2.807,0,7.508,0h10.83A7.579,7.579,0,0,1,23.86,1.994,7.567,7.567,0,0,1,25.836,7.51V18.34C25.836,23.041,23.029,25.848,18.326,25.848ZM8.1,14.921A1.65,1.65,0,0,0,6.46,16.575c0,3.237,2.593,5.5,6.307,5.5s6.307-2.261,6.307-5.5a1.679,1.679,0,0,0-1.667-1.654Zm9.441-8.005a2.221,2.221,0,1,0,2.222,2.22A2.222,2.222,0,0,0,17.542,6.916Zm-9.689,0a2.221,2.221,0,1,0,2.221,2.22A2.222,2.222,0,0,0,7.853,6.916Z" transform="translate(2.609 2.584)" fill="#fff"/></g></svg>