<svg xmlns="http://www.w3.org/2000/svg" width="18.464" height="18.464" viewBox="0 0 18.464 18.464"><g transform="translate(-0.227 -0.227)"><path d="M13.757,16.086a7.286,7.286,0,0,1-4.3,1.491c-5.065,0-7.959-5.788-7.959-5.788a13.35,13.35,0,0,1,3.661-4.3M7.94,6.174A6.6,6.6,0,0,1,9.459,6c5.065,0,7.959,5.788,7.959,5.788A13.386,13.386,0,0,1,15.855,14.1m-4.862-.774a2.171,2.171,0,1,1-3.068-3.068" transform="translate(0 -2.329)" fill="none" stroke="#7f7f7f" stroke-linecap="round" stroke-linejoin="round" stroke-width="1.8"/><path d="M1.5,1.5,17.418,17.418" fill="none" stroke="#7f7f7f" stroke-linecap="round" stroke-linejoin="round" stroke-width="1.8"/></g></svg>