<svg xmlns="http://www.w3.org/2000/svg" width="24" height="24" viewBox="0 0 24 24"><g transform="translate(-8595 3578)"><g transform="translate(8597.032 -3575.595)"><g transform="translate(12.767 1.666)"><path d="M2.224,4.3a.5.5,0,0,0-.158,0,2.153,2.153,0,1,1,.158,0Z" fill="none" stroke="#999" stroke-linecap="round" stroke-linejoin="round" stroke-width="2.1"/><path d="M.025,4.114a4.692,4.692,0,0,0,3.281-.6,1.592,1.592,0,0,0,0-2.848A4.722,4.722,0,0,0,0,.075" transform="translate(1.341 6.246)" fill="none" stroke="#999" stroke-linecap="round" stroke-linejoin="round" stroke-width="2.1"/></g><g transform="translate(1.668 1.666)"><path d="M2.074,4.3a.5.5,0,0,1,.158,0,2.153,2.153,0,1,0-.158,0Z" transform="translate(1.23)" fill="none" stroke="#999" stroke-linecap="round" stroke-linejoin="round" stroke-width="2.1"/><path d="M4.162,4.114a4.692,4.692,0,0,1-3.281-.6,1.592,1.592,0,0,1,0-2.848A4.722,4.722,0,0,1,4.187.075" transform="translate(0 6.246)" fill="none" stroke="#999" stroke-linecap="round" stroke-linejoin="round" stroke-width="2.1"/></g><g transform="translate(6.689 7.886)"><path d="M2.224,4.3a.5.5,0,0,0-.158,0,2.153,2.153,0,1,1,.158,0Z" transform="translate(1.081)" fill="none" stroke="#999" stroke-linecap="round" stroke-linejoin="round" stroke-width="2.1"/><path d="M.881.662a1.592,1.592,0,0,0,0,2.848,4.728,4.728,0,0,0,4.847,0,1.592,1.592,0,0,0,0-2.848A4.766,4.766,0,0,0,.881.662Z" transform="translate(0 6.258)" fill="none" stroke="#999" stroke-linecap="round" stroke-linejoin="round" stroke-width="2.1"/></g></g><rect width="24" height="24" transform="translate(8595 -3578)" fill="none"/></g></svg>