<svg xmlns="http://www.w3.org/2000/svg" width="24" height="24" viewBox="0 0 24 24"><g transform="translate(-993 -18.35)"><path d="M6.291,0A4.932,4.932,0,0,0,1.91,2.317a.612.612,0,0,0,.132.837l1.1.833a.611.611,0,0,0,.847-.106A2.47,2.47,0,0,1,6.093,2.622c.783,0,1.752.5,1.752,1.263,0,.574-.474.869-1.247,1.3C5.7,5.694,4.5,6.323,4.5,7.9v.249a.611.611,0,0,0,.611.611H6.958a.611.611,0,0,0,.611-.611V8c0-1.091,3.189-1.137,3.189-4.089C10.758,1.687,8.452,0,6.291,0ZM6.036,9.507A1.763,1.763,0,1,0,7.8,11.271,1.765,1.765,0,0,0,6.036,9.507Z" transform="translate(998.896 23.658)" fill="#cecece"/><circle cx="11" cy="11" r="11" transform="translate(994 19.35)" fill="none" stroke="#cecece" stroke-width="2"/></g></svg>