<svg xmlns="http://www.w3.org/2000/svg" width="20" height="20" viewBox="0 0 20 20"><path d="M14.6,10.6a6.214,6.214,0,0,1-6.234,1.534L4.5,15.989a1.588,1.588,0,0,1-1.222.4l-1.788-.246a1.548,1.548,0,0,1-1.23-1.23L.01,13.126a1.653,1.653,0,0,1,.4-1.222L4.268,8.049A6.211,6.211,0,1,1,14.6,10.6Z" transform="translate(1.795 1.804)" fill="none" stroke="#2b2b2b" stroke-linecap="round" stroke-linejoin="round" stroke-width="1.6"/><path d="M0,0,2.067,2.067" transform="translate(5.694 14.454)" fill="none" stroke="#292d32" stroke-linecap="round" stroke-linejoin="round" stroke-width="1.5"/><path d="M2.7,1.348A1.348,1.348,0,1,1,1.348,0,1.348,1.348,0,0,1,2.7,1.348Z" transform="translate(10.712 6.592)" fill="none" stroke="#2b2b2b" stroke-linecap="round" stroke-linejoin="round" stroke-width="1.6"/><path d="M0,0H20V20H0Z" transform="translate(20 20) rotate(180)" fill="none" opacity="0"/></svg>