<svg xmlns="http://www.w3.org/2000/svg" width="171.47" height="21.675" viewBox="0 0 171.47 21.675"><g transform="translate(-74.315 -22.69)"><path d="M26.2.365c3.83,0,7.722-2.006,7.722-6.506,0-3.8-3.04-5.32-6.019-6.232l-2.189-.7c-1.946-.547-2.067-1.49-2.067-1.915a2.269,2.269,0,0,1,2.462-2.158,2.194,2.194,0,0,1,2.4,2.31h4.773c0-4.074-3.07-6.475-7.083-6.475-4.165,0-7.387,2.645-7.387,6.414,0,1.976.882,4.8,5.5,6.05l2.493.76c1.854.608,2.31,1.368,2.31,2.189,0,1.368-1.186,2.158-2.736,2.158-1.642,0-2.979-1.034-2.979-2.371H18.635C18.635-2.25,21.736.365,26.2.365Z" transform="translate(75.18 44)" fill="#13ccce"/><path d="M155.83.365c4.317,0,8.147-3.01,8.147-7.843V-20.946H159.2v13.1c0,2.645-1.672,3.678-3.374,3.678-1.733,0-3.4-1.034-3.4-3.678v-13.1h-4.773V-7.478C147.653-2.645,151.514.365,155.83.365Z" transform="translate(81.807 44)" fill="#13ccce"/><path d="M.608-20.946v4.165H6.141V0h4.773V-16.781h5.533v-4.165Z" transform="translate(73.707 44)" fill="#13ccce"/><path d="M46.086.365c4.317,0,8.147-3.01,8.147-7.843V-20.946H49.461v13.1c0,2.645-1.672,3.678-3.374,3.678-1.733,0-3.4-1.034-3.4-3.678v-13.1H37.909V-7.478C37.909-2.645,41.77.365,46.086.365Z" transform="translate(75.706 44)" fill="#13ccce"/><path d="M69.19.365c5.594,0,10-3.557,10-11.491H68.1v3.861h5.9c0,2.067-2.584,3.374-4.925,3.374a6.331,6.331,0,0,1-6.11-6.566,6.174,6.174,0,0,1,5.958-6.414,5.873,5.873,0,0,1,4.5,2.1l3.526-2.949a10.359,10.359,0,0,0-8.026-3.587A10.762,10.762,0,0,0,58.155-10.458,10.761,10.761,0,0,0,69.19.365Z" transform="translate(76.408 44)" fill="#13ccce"/><path d="M87.765,0V-20.946H82.992V0Z" transform="translate(77.423 44)" fill="#13ccce"/><path d="M91.352-20.946v4.165h5.533V0h4.773V-16.781h5.533v-4.165Z" transform="translate(79.063 44)" fill="#13ccce"/><path d="M127.072,0,119.35-20.946h-5.2L106.4,0h5.107l1.55-4.864h7.357L122,0ZM116.706-16.386,119.077-9h-4.712Z" transform="translate(80.515 44)" fill="#13ccce"/><path d="M135.949.365c3.83,0,7.722-2.006,7.722-6.506,0-3.8-3.04-5.32-6.019-6.232l-2.189-.7c-1.946-.547-2.067-1.49-2.067-1.915a2.269,2.269,0,0,1,2.462-2.158,2.194,2.194,0,0,1,2.4,2.31h4.773c0-4.074-3.07-6.475-7.083-6.475-4.165,0-7.387,2.645-7.387,6.414,0,1.976.882,4.8,5.5,6.05l2.493.76c1.854.608,2.31,1.368,2.31,2.189,0,1.368-1.186,2.158-2.736,2.158-1.642,0-2.979-1.034-2.979-2.371h-4.773C128.379-2.25,131.48.365,135.949.365Z" transform="translate(81.326 44)" fill="#13ccce"/></g></svg>