<svg xmlns="http://www.w3.org/2000/svg" width="150.041" height="18.694" viewBox="0 0 150.041 18.694"><g transform="translate(-70.315 -22.69)"><path d="M24.96-2.616c3.2,0,6.452-1.73,6.452-5.611,0-3.277-2.54-4.588-5.029-5.375l-1.829-.6c-1.626-.472-1.727-1.285-1.727-1.652a1.92,1.92,0,0,1,2.057-1.862,1.863,1.863,0,0,1,2.007,1.993h3.988c0-3.513-2.565-5.585-5.918-5.585-3.48,0-6.172,2.281-6.172,5.532,0,1.7.737,4.143,4.6,5.218l2.083.655c1.549.524,1.93,1.18,1.93,1.888,0,1.18-.991,1.862-2.286,1.862A2.286,2.286,0,0,1,22.623-8.2H18.635C18.635-4.871,21.226-2.616,24.96-2.616Z" transform="translate(68.581 44)" fill="#13ccce"/><path d="M154.486-2.556a6.612,6.612,0,0,0,6.807-6.768V-20.946h-3.988V-9.639c0,2.282-1.4,3.174-2.819,3.174-1.448,0-2.845-.892-2.845-3.174V-20.946h-3.988V-9.324A6.632,6.632,0,0,0,154.486-2.556Z" transform="translate(59.063 43.94)" fill="#13ccce"/><path d="M.608-20.946v3.6H5.231V-2.861H9.219V-17.35h4.623v-3.6Z" transform="translate(69.707 43.94)" fill="#13ccce"/><path d="M44.742-2.556a6.612,6.612,0,0,0,6.807-6.768V-20.946H47.561V-9.639c0,2.282-1.4,3.174-2.819,3.174-1.448,0-2.845-.892-2.845-3.174V-20.946H37.909V-9.324A6.632,6.632,0,0,0,44.742-2.556Z" transform="translate(67.007 43.94)" fill="#13ccce"/><path d="M67.376-2.616c4.674,0,8.357-3.068,8.357-9.911H66.461V-9.2h4.928c0,1.783-2.159,2.91-4.115,2.91-3,0-5.106-2.7-5.106-5.663a5.257,5.257,0,0,1,4.979-5.532,4.847,4.847,0,0,1,3.759,1.809l2.946-2.543a8.543,8.543,0,0,0-6.706-3.094,9.144,9.144,0,0,0-8.992,9.36A9.136,9.136,0,0,0,67.376-2.616Z" transform="translate(65.141 44)" fill="#13ccce"/><path d="M86.98-2.861V-20.946H82.992V-2.861Z" transform="translate(62.705 43.94)" fill="#13ccce"/><path d="M91.352-20.946v3.6h4.623V-2.861h3.988V-17.35h4.623v-3.6Z" transform="translate(63.43 43.94)" fill="#13ccce"/><path d="M123.672-2.861l-6.452-18.085h-4.344L106.4-2.861h4.267l1.3-4.2h6.147l1.321,4.2Zm-8.662-14.148,1.981,6.378h-3.937Z" transform="translate(63.415 43.94)" fill="#13ccce"/><path d="M134.7-2.616c3.2,0,6.452-1.73,6.452-5.611,0-3.277-2.54-4.588-5.029-5.375l-1.829-.6c-1.626-.472-1.727-1.285-1.727-1.652a1.92,1.92,0,0,1,2.057-1.862,1.863,1.863,0,0,1,2.007,1.993h3.988c0-3.513-2.565-5.585-5.918-5.585-3.48,0-6.172,2.281-6.172,5.532,0,1.7.737,4.143,4.6,5.218l2.083.655c1.549.524,1.93,1.18,1.93,1.888,0,1.18-.991,1.862-2.286,1.862A2.286,2.286,0,0,1,132.367-8.2h-3.988C128.379-4.871,130.97-2.616,134.7-2.616Z" transform="translate(61.534 44)" fill="#13ccce"/></g></svg>