<svg xmlns="http://www.w3.org/2000/svg" width="39" height="39" viewBox="0 0 39 39"><g transform="translate(66 -683)"><rect width="39" height="39" transform="translate(-66 683)" fill="#69d1d2"/><path d="M5,2.5A2.5,2.5,0,1,1,2.5,0,2.5,2.5,0,0,1,5,2.5Z" transform="translate(-55.5 696.1)" fill="#54a0a1"/><path d="M5,2.5A2.5,2.5,0,1,1,2.5,0,2.5,2.5,0,0,1,5,2.5Z" transform="translate(-42.5 696.1)" fill="#54a0a1"/><path d="M9.346,0H1.4A1.406,1.406,0,0,0,0,1.412a5.385,5.385,0,1,0,10.77,0A1.439,1.439,0,0,0,9.346,0Z" transform="translate(-51.885 706.424)" fill="#54a0a1"/></g></svg>