<svg xmlns="http://www.w3.org/2000/svg" width="426.29" height="362.161" viewBox="0 0 426.29 362.161"><g transform="translate(-269 -175.257)"><g transform="translate(157.396 144.374)"><g transform="translate(111.603 32.208)"><g transform="matrix(0.966, 0.259, -0.259, 0.966, 42.809, 0)"><g transform="translate(40.312 9.435)"><path d="M7.087,29.582C3.134,24.943.459,19.258.906,12.887,2.194-5.468,27.745-1.43,32.715,7.834s4.38,32.763-2.044,34.419c-2.562.66-8.019-.957-13.573-4.3l3.486,24.664H0Z" transform="translate(0 0)" fill="#d4a181" fill-rule="evenodd"/></g><path d="M54.523,37.726c-2.553,4.9-6.083,8.59-9.61,8.59-6.7,0-11.463-8.957-11.463-18.587q0-.508.02-1.008c-7.087,4.863-12.548,14.448-21.925,14.448-12.757,0-17.823-25.731,0-25.731,12.121,0,18.084,1.767,23.222,4.381a16.693,16.693,0,0,1,4.448-6.937,6.916,6.916,0,0,1,2.051-1.455,9.5,9.5,0,0,1,1.7-.73,42.733,42.733,0,0,1,12.6-2.117c.936-.033,1.856-.042,2.753-.03a8.577,8.577,0,1,1,9.042,8.592,43.289,43.289,0,0,1-9.594,1.631,17.883,17.883,0,0,1,.552,4.6,26.014,26.014,0,0,1-.478,4.785,4.007,4.007,0,0,0-2.952-1.57,5.144,5.144,0,0,0-5.146,5.146C49.746,35.1,51.688,37.531,54.523,37.726Z" transform="translate(0 0)" fill="#191847" fill-rule="evenodd"/></g><g transform="translate(0 155.846)"><path d="M133.491,0l31.418,108.264,14.777,81.287h14.832L179.712,0Z" transform="translate(-95.752 0)" fill="#ba8b72" fill-rule="evenodd"/><path d="M111.7,0c2.193,56.243,1.328,86.919.837,92.028s-3.277,39.333-22.257,99.238H105.7C130.841,133.8,139.616,99.575,142.5,92.028S153.9,53.806,166.328,0Z" transform="translate(-88.078)" fill="#d4a181" fill-rule="evenodd"/><path d="M132.671,0q12.258,55.881,42.4,178.4h21.694c1.6-83.836-5.214-139.014-17.018-178.4Z" transform="translate(-95.607 0)" fill="#69a1ac" fill-rule="evenodd"/><path d="M111.729,0c2.147,56.243-3.417,111.652-20.653,179.276h23.146C139.406,122.666,157.456,67.529,169.791,0Z" transform="translate(-88.22)" fill="#89c5cc" fill-rule="evenodd"/><g transform="translate(0 186.977)"><path d="M0,35.253.851,21.53q7.475,2.186,18.726-1.715,12.1,8.569,30.458,11.7a1.716,1.716,0,0,1,1.4,1.98,1.74,1.74,0,0,1-.041.179l-1.177,4.15H1.7Z" transform="translate(0 -19.815)" fill="#191847" fill-rule="evenodd"/></g><g transform="translate(80.623 186.977)"><path d="M0,35.253.851,21.53q7.475,2.186,18.726-1.715,12.1,8.569,30.458,11.7a1.716,1.716,0,0,1,1.4,1.98,1.74,1.74,0,0,1-.041.179l-1.177,4.15H1.7Z" transform="translate(0 -19.815)" fill="#191847" fill-rule="evenodd"/></g></g><g transform="translate(36.7 59.437) rotate(10)"><path d="M0,30.373,29.771,14.068A73.617,73.617,0,0,1,44.4.37c1.468-.613,4.036-.984,1.634,3.278S41.3,12.5,42.526,13.814s4.273-.521,5.733,1.66q1.459,2.182-15.634,6.892L10.993,42.172ZM46.626,44.13,59.7,36.946q2.752-10.473,6.58-10.538c1.961-.912-1.453,7.91,2.262,7.145s12.787-7.511,14.35-6.141c2.312,2.026.251,8.248-2.179,11.344-4.54,5.785-8.3,7.763-17.59,10.353Q55.84,51.14,47.37,57.253Z" transform="translate(69.829 6.251)" fill="#d4a181" fill-rule="evenodd"/><path d="M4.722,5.458A73.148,73.148,0,0,0,45.244,0l3.722,13.746c-11.7,8.431-27.215,14.421-39.587,12.1C-.371,24.023-3.5,11.385,4.722,5.458Z" transform="translate(49.813 28.339) rotate(-9)" fill="#2026a2" fill-rule="evenodd"/><path d="M69.37,53.83q16.606,4.141,55.692-9.767,9.7,20.057,8.964,28.6c-22.353,11.677-41.512,16.883-57.3,17.226.5,9.366-.638,18.277-4.468,26.421-7.873,16.74-53.974,1.237-69.474,4.288C-6.92,89.073,11.848,76.261,11.863,56.09,11.88,34,29.616,0,32.226,0h23.8C57.338,16.87,63.947,35.462,69.37,53.83Z" transform="translate(0 0)" fill="#1f28cf" fill-rule="evenodd"/></g></g></g><g transform="translate(436 182.918)"><g transform="translate(259.29 354.5) rotate(180)"><g transform="translate(50.405 232.424)"><g transform="translate(15.869 0)"><path d="M7.712,35.946C3.411,41,.5,47.182.986,54.115,2.388,74.091,30.2,69.7,35.6,59.615s4.766-35.656-2.224-37.458c-2.788-.719-8.727,1.042-14.771,4.685L22.4,0H0Z" fill="#b28b67" fill-rule="evenodd"/></g><path d="M54.519,22.311a7,7,0,0,0,1.46-2.712,27.4,27.4,0,0,0,.934-3.08c.47-2.1.475-4.514-1.023-6.144a7.045,7.045,0,0,0-4.667-2.021,8.573,8.573,0,0,0-3.309.419c-1.054.346-1.963,1.037-2.984,1.465a13.353,13.353,0,0,0-1.574-6.562A6.542,6.542,0,0,0,38.484.5a9.659,9.659,0,0,0-5.934,1.195c-.461.25-.918.511-1.356.807a3.8,3.8,0,0,1-1.177.647c-.479.112-.716-.164-1.028-.514a7.817,7.817,0,0,0-1.212-1.091A7.138,7.138,0,0,0,21.1.394a6.207,6.207,0,0,0-2.723,1.968c-.621.815-1.064,2.108-1.922,2.675-.364.241-.621-.078-.952-.314-.5-.355-.972-.746-1.476-1.091A6.761,6.761,0,0,0,11.733,2.6c-1.2-.278-2.86-.213-3.2,1.36a6.5,6.5,0,0,0,.012,1.818c.057.817.117,1.634.188,2.45a17.709,17.709,0,0,0,.239,1.827A2.673,2.673,0,0,1,9.086,11.3c-.174.406-.976.175-1.319.189a5.21,5.21,0,0,0-1.983.436,2.133,2.133,0,0,0-1.2,1.11,1.993,1.993,0,0,0-.033,1.044,3.114,3.114,0,0,1-.064,1.071c-.909-.448-4.06-1.442-4.456.187a2.549,2.549,0,0,0,.4,1.613A13.985,13.985,0,0,0,1.9,19.19,19.988,19.988,0,0,0,5.81,22.984a2.563,2.563,0,0,0-.669,4.293,3.176,3.176,0,0,0,2.332.676,5.153,5.153,0,0,1,.964-.076,2.307,2.307,0,0,0,.437.147,13,13,0,0,0,3.577-.454,11.8,11.8,0,0,0,5.455-2.853,1.682,1.682,0,0,1,1.262-.579c.469,0,.93.133,1.4.145a10.073,10.073,0,0,0,3.51-.978,13.245,13.245,0,0,0,1.15,4.669c.519,1.141,1.6,1.307,2.668,1.407,3.406.32,6.823-.037,10.233-.032-3.3.746-6.712,1.054-9.984,1.932-1.479.4-.35,1.393.283,2.084A12.011,12.011,0,0,1,30.78,37.4c1.615-2.1,4.469-3.492,7-2.845,2.794.714,4.761,4.493,2.975,7.209-1.037,1.577-2.91,2.186-4.469,2.863,1.216,1.264,1.51,3.131,2.242,4.7A3.366,3.366,0,0,0,40.2,51.251a1.958,1.958,0,0,1,.884.352c.292.3.361.638.734.9a4.139,4.139,0,0,0,5.128-.4,3.348,3.348,0,0,0-.114-4.388c1.585-.661,4.472-1.51,3.842-3.979,3.434-.228,11.771-5.8,7.163-9.867,2.53-1.43,4.853-4.923,3.229-8-1.252-2.371-4.161-3.432-6.548-3.557" transform="translate(61.607 83.075) rotate(180)" fill="#191847" fill-rule="evenodd"/></g><g transform="translate(0 0)"><path d="M25.784,115.746H97.9L107.345,0H0Z" fill="#c5cfd6" fill-rule="evenodd"/><path d="M25.784,115.746H47.962L61.237,0H0Z" fill="rgba(0,0,0,0.1)" fill-rule="evenodd"/><path d="M63.358,131.684c7.689,4.617,20.588-1.315,20.579-7.918-.026-19.756-18.055-112.864-19-118.75S53.915-2.424,53.328,5c-.934,11.808-2.671,52.687-.933,71.608.717,7.81,1.489,15.248,2.249,21.884Q40.453,72.863,10.749,25.107L0,30.019q12.662,41.719,20.765,58.9c9.25,19.618,17.924,36.418,21.574,42.335C48.082,140.567,58.076,137.319,63.358,131.684Z" transform="translate(116.751 3.891)" fill="#b28b67" fill-rule="evenodd"/><path d="M0,0,4.777,94.753c3.442,16.384,32.583,8.78,32.571,0C37.321,74.819,25.347,5.958,25.339.02Z" transform="translate(117.518 49.355) rotate(-20)" fill="#1f28cf" fill-rule="evenodd"/><g transform="matrix(0.866, -0.5, 0.5, 0.866, 107.3, 28.404)"><path d="M1.566,13.626A20.043,20.043,0,0,1,0,7.369,46.837,46.837,0,0,1,.841,0H53.489q2.052,6.784-2.369,7.325T43.773,8.3L19.3,19.211a.933.933,0,0,1-1.233-.473l-.01-.024L16.487,14.9a16.786,16.786,0,0,0-6.652-1.91,15.065,15.065,0,0,0-5.743,1.679h0a1.867,1.867,0,0,1-2.475-.919Q1.59,13.689,1.566,13.626Z" transform="translate(0 0)" fill="#e4e4e4" fill-rule="evenodd"/></g><g transform="translate(166.151 0)"><path d="M1.566,13.626A20.043,20.043,0,0,1,0,7.369,46.836,46.836,0,0,1,.841,0H53.489q2.052,6.784-2.369,7.325T43.773,8.3L19.3,19.211a.933.933,0,0,1-1.233-.473l-.01-.024L16.487,14.9a16.786,16.786,0,0,0-6.652-1.91,15.065,15.065,0,0,0-5.743,1.679h0a1.867,1.867,0,0,1-2.475-.919Q1.59,13.689,1.566,13.626Z" transform="translate(0)" fill="#e4e4e4" fill-rule="evenodd"/></g><path d="M159.4,88.123c0-24.8-11.776-82.643-11.784-88.1L122.28,0q5.563,77.422,3.946,78.256C124.607,79.09,59.9,71.8,40.5,71.8,12.515,71.8.939,89.442,0,122.131H55.433c11.287-1.208,70.16-13.082,92.023-17.164C156.817,103.219,159.4,94.955,159.4,88.123Z" transform="translate(43.871 32.819)" fill="#2b44ff" fill-rule="evenodd"/></g><g transform="translate(31.946 117.768)"><path d="M0,29.254,32.4,47A80.149,80.149,0,0,0,48.325,61.906c1.6.667,4.392,1.071,1.779-3.567S44.95,48.7,46.281,47.275s4.651.567,6.24-1.807q1.588-2.374-17.015-7.5L11.965,16.412ZM50.743,14.282,64.975,22.1q2.995,11.4,7.16,11.469c2.134.993-1.581-8.609,2.462-7.776s13.916,8.174,15.616,6.684c2.517-2.205.273-8.977-2.371-12.345C82.9,13.836,78.812,11.683,68.7,8.864Q60.772,6.653,51.553,0Z" transform="translate(75.995 66.08)" fill="#997659" fill-rule="evenodd"/><path d="M5.138,22.738a79.611,79.611,0,0,1,44.1,5.94l4.05-14.959C40.56,4.544,23.672-1.976,10.207.546-.4,2.534-3.81,16.289,5.138,22.738Z" transform="translate(58.698 76.024) rotate(9)" fill="#2026a2" fill-rule="evenodd"/><path d="M75.5,76.608q18.072-4.507,60.61,10.63,10.552-21.828,9.755-31.124C121.533,43.406,100.683,37.74,83.5,37.366c.546-10.192-.694-19.891-4.862-28.753C70.074-9.606,19.9,7.267,3.033,3.946c-10.564,34.308,9.862,48.251,9.878,70.2.018,24.04,19.321,61.043,22.161,61.043h25.9C62.4,116.832,69.593,96.6,75.5,76.608Z" transform="translate(0 0)" fill="#1f28cf" fill-rule="evenodd"/></g></g></g><line x1="26" y1="20" transform="translate(543.858 223)" fill="none" stroke="#4e4e4e" stroke-linecap="round" stroke-width="1"/><path d="M57.735,57.638A46.4,46.4,0,0,1,38.991,61.49c-21.263,0-38.5-13.655-38.5-30.5S17.728.49,38.991.49s38.5,13.656,38.5,30.5a25.606,25.606,0,0,1-4.8,14.764" transform="translate(483.802 175.257)" fill="none" stroke="#4e4e4e" stroke-linecap="round" stroke-miterlimit="10" stroke-width="0.98"/><path d="M34.879,41.594c-3.681-1.066-11.044-4.887-13.7-11.265h-.009c-.023-.067-.048-.133-.073-.2-.037-.1-.073-.187-.109-.282H21a12.358,12.358,0,0,1-.636-3.932c0-4.119,3.861-7.452,8.622-7.452a9.132,9.132,0,0,1,6.878,2.972,9.124,9.124,0,0,1,6.878-2.972c4.762,0,8.622,3.332,8.622,7.452a12.43,12.43,0,0,1-.807,4.415h-.024c-2.656,6.377-10.019,10.2-13.7,11.264a4,4,0,0,1-1.944,0Z" transform="translate(486.934 177.159)" fill="#d73a78"/></g></svg>