<svg xmlns="http://www.w3.org/2000/svg" width="24" height="24" viewBox="0 0 24 24"><g transform="translate(-8595 3307)"><g transform="translate(8573.225 -3495.905)"><path d="M14.713.409C11.991.139,9.253,0,6.523,0A48.282,48.282,0,0,0,1.667.245L0,.409" transform="translate(26.579 196.049)" fill="none" stroke="#999" stroke-linecap="round" stroke-linejoin="round" stroke-width="2.4"/><path d="M0,2.428.18,1.357C.311.58.409,0,1.79,0H3.932c1.381,0,1.488.613,1.61,1.365l.18,1.063" transform="translate(31.074 193.205)" fill="none" stroke="#999" stroke-linecap="round" stroke-linejoin="round" stroke-width="2.4"/><path d="M11.2,0l-.531,7.789C10.577,9,10.5,9.947,8.223,9.947H2.975C.695,9.947.621,9,.531,7.789L0,0" transform="translate(28.336 199.041)" fill="none" stroke="#999" stroke-linecap="round" stroke-linejoin="round" stroke-width="2.4"/><path d="M0,0H2.722" transform="translate(32.57 205.057)" fill="none" stroke="#999" stroke-linecap="round" stroke-linejoin="round" stroke-width="2.4"/><path d="M0,0H4.087" transform="translate(31.892 201.787)" fill="none" stroke="#999" stroke-linecap="round" stroke-linejoin="round" stroke-width="2.4"/></g><rect width="24" height="24" transform="translate(8595 -3307)" fill="none"/></g></svg>